{
.appVersion = "3151";
.storedFileType = "public.opentype-font";
.formatVersion = 3;
customParameters = (
{
name = vendorID;
value = "";
},
{
name = panose;
value = (
0,
0,
0,
0,
0,
0,
0,
0,
0,
0
);
},
{
name = unicodeRanges;
value = (
0,
1,
2,
3,
5,
7,
31,
35,
38,
45,
60,
62
);
},
{
name = codePageRanges;
value = (
"1252",
"1254",
"1258",
"bit 29",
"857",
"850"
);
},
{
name = fsType;
value = (
);
},
{
name = blueScale;
value = 0.04546;
}
);
date = "2007-05-07 05:01:43 +0000";
familyName = "Whitney Pro";
fontMaster = (
{
customParameters = (
{
name = typoAscender;
value = 718;
},
{
name = typoDescender;
value = -183;
},
{
name = typoLineGap;
value = 69;
},
{
name = winAscent;
value = 939;
},
{
name = winDescent;
value = 200;
},
{
name = hheaAscender;
value = 939;
},
{
name = hheaDescender;
value = -200;
},
{
name = strikeoutPosition;
value = 225;
},
{
name = strikeoutSize;
value = 50;
},
{
name = underlinePosition;
value = -133;
},
{
name = underlineThickness;
value = 20;
},
{
name = "Alignment Zones";
value = (
{
pos = 473;
size = 10;
},
{
pos = 715;
size = 3;
}
);
}
);
id = m01;
metricValues = (
{
pos = 718;
},
{
over = 13;
pos = 690;
},
{
pos = 481;
},
{
over = -13;
},
{
pos = -183;
},
{
over = -13;
}
);
name = Regular;
stemValues = (
56,
62,
66,
69
);
}
);
glyphs = (
{
glyphname = A;
layers = (
{
layerId = m01;
shapes = (
{
closed = 1;
nodes = (
(652,8,l),
(382,694,l),
(311,694,l),
(39,0,l),
(109,0,l),
(194,223,l),
(496,223,l),
(585,-7,l)
);
},
{
closed = 1;
nodes = (
(473,284,l),
(219,284,l),
(345,613,l)
);
}
);
width = 691;
}
);
note = A;
unicode = 65;
},
{
glyphname = Aacute;
layers = (
{
layerId = m01;
shapes = (
{
closed = 1;
nodes = (
(507,880,l),
(421,899,l),
(324,746,l),
(370,746,l)
);
},
{
closed = 1;
nodes = (
(652,8,l),
(382,694,l),
(311,694,l),
(39,0,l),
(109,0,l),
(194,223,l),
(496,223,l),
(585,-7,l)
);
},
{
closed = 1;
nodes = (
(473,284,l),
(219,284,l),
(345,613,l)
);
}
);
width = 691;
}
);
note = Aacute;
unicode = 193;
},
{
glyphname = Acircumflex;
layers = (
{
layerId = m01;
shapes = (
{
closed = 1;
nodes = (
(652,8,l),
(382,694,l),
(311,694,l),
(39,0,l),
(109,0,l),
(194,223,l),
(496,223,l),
(585,-7,l)
);
},
{
closed = 1;
nodes = (
(473,284,l),
(219,284,l),
(345,613,l)
);
},
{
closed = 1;
nodes = (
(476,741,l),
(377,881,l),
(316,881,l),
(211,736,l),
(253,736,l),
(345,819,l),
(440,733,l)
);
}
);
width = 691;
}
);
note = Acircumflex;
unicode = 194;
},
{
glyphname = Adieresis;
layers = (
{
layerId = m01;
shapes = (
{
closed = 1;
nodes = (
(652,8,l),
(382,694,l),
(311,694,l),
(39,0,l),
(109,0,l),
(194,223,l),
(496,223,l),
(585,-7,l)
);
},
{
closed = 1;
nodes = (
(473,284,l),
(219,284,l),
(345,613,l)
);
},
{
closed = 1;
nodes = (
(474,753,l),
(474,841,l),
(391,841,l),
(391,753,l)
);
},
{
closed = 1;
nodes = (
(301,753,l),
(301,841,l),
(219,841,l),
(219,753,l)
);
}
);
width = 691;
}
);
note = Adieresis;
unicode = 196;
},
{
glyphname = Agrave;
layers = (
{
layerId = m01;
shapes = (
{
closed = 1;
nodes = (
(652,8,l),
(382,694,l),
(311,694,l),
(39,0,l),
(109,0,l),
(194,223,l),
(496,223,l),
(585,-7,l)
);
},
{
closed = 1;
nodes = (
(473,284,l),
(219,284,l),
(345,613,l)
);
},
{
closed = 1;
nodes = (
(369,746,l),
(273,899,l),
(187,880,l),
(323,746,l)
);
}
);
width = 691;
}
);
note = Agrave;
unicode = 192;
},
{
glyphname = Aring;
layers = (
{
layerId = m01;
shapes = (
{
closed = 1;
nodes = (
(652,8,l),
(382,694,l),
(311,694,l),
(39,0,l),
(109,0,l),
(194,223,l),
(496,223,l),
(585,-7,l)
);
},
{
closed = 1;
nodes = (
(473,284,l),
(219,284,l),
(345,613,l)
);
},
{
closed = 1;
nodes = (
(444,895,o),
(402,939,o),
(346,939,cs),
(290,939,o),
(248,895,o),
(248,840,cs),
(248,784,o),
(290,744,o),
(346,744,cs),
(402,744,o),
(444,784,o),
(444,840,cs)
);
},
{
closed = 1;
nodes = (
(404,805,o),
(380,780,o),
(346,780,cs),
(313,780,o),
(287,805,o),
(287,840,cs),
(287,875,o),
(313,902,o),
(346,902,cs),
(380,902,o),
(404,875,o),
(404,840,cs)
);
}
);
width = 691;
}
);
note = Aring;
unicode = 197;
},
{
glyphname = Atilde;
layers = (
{
layerId = m01;
shapes = (
{
closed = 1;
nodes = (
(652,8,l),
(382,694,l),
(311,694,l),
(39,0,l),
(109,0,l),
(194,223,l),
(496,223,l),
(585,-7,l)
);
},
{
closed = 1;
nodes = (
(473,284,l),
(219,284,l),
(345,613,l)
);
},
{
closed = 1;
nodes = (
(450,864,l),
(441,827,o),
(430,812,o),
(414,812,cs),
(398,812,o),
(385,819,o),
(351,837,cs),
(319,854,o),
(303,863,o),
(276,863,cs),
(236,863,o),
(209,827,o),
(199,759,c),
(244,750,l),
(252,788,o),
(264,803,o),
(280,803,cs),
(296,803,o),
(308,795,o),
(343,777,cs),
(375,760,o),
(391,752,o),
(418,752,cs),
(457,752,o),
(485,788,o),
(494,855,c)
);
}
);
width = 691;
}
);
note = Atilde;
unicode = 195;
},
{
glyphname = AE;
layers = (
{
layerId = m01;
shapes = (
{
closed = 1;
nodes = (
(827,0,l),
(827,62,l),
(526,62,l),
(526,330,l),
(766,330,l),
(757,392,l),
(526,392,l),
(526,628,l),
(817,628,l),
(817,690,l),
(416,690,l),
(11,0,l),
(85,0,l),
(214,223,l),
(459,223,l),
(459,0,l)
);
},
{
closed = 1;
nodes = (
(459,283,l),
(250,283,l),
(459,641,l)
);
}
);
width = 869;
}
);
note = AE;
unicode = 198;
},
{
glyphname = B;
layers = (
{
layerId = m01;
shapes = (
{
closed = 1;
nodes = (
(496,291,o),
(442,344,o),
(360,367,c),
(423,393,o),
(465,444,o),
(465,518,cs),
(465,621,o),
(394,690,o),
(252,690,cs),
(92,690,l),
(92,0,l),
(251,0,ls),
(399,0,o),
(496,67,o),
(496,199,cs)
);
},
{
closed = 1;
nodes = (
(397,443,o),
(346,390,o),
(248,390,cs),
(160,390,l),
(160,630,l),
(250,630,ls),
(349,630,o),
(397,587,o),
(397,515,cs)
);
},
{
closed = 1;
nodes = (
(428,109,o),
(362,60,o),
(257,60,cs),
(160,60,l),
(160,333,l),
(253,333,ls),
(361,333,o),
(428,289,o),
(428,195,cs)
);
}
);
width = 547;
}
);
note = B;
unicode = 66;
},
{
glyphname = C;
layers = (
{
layerId = m01;
shapes = (
{
closed = 1;
nodes = (
(574,122,l),
(518,79,o),
(451,50,o),
(377,50,cs),
(227,50,o),
(132,169,o),
(132,346,cs),
(132,521,o),
(226,641,o),
(378,641,cs),
(448,641,o),
(508,613,o),
(562,574,c),
(573,644,l),
(521,680,o),
(457,703,o),
(379,703,cs),
(189,703,o),
(61,556,o),
(61,344,cs),
(61,131,o),
(187,-13,o),
(374,-13,cs),
(456,-13,o),
(532,17,o),
(584,56,c)
);
}
);
width = 648;
}
);
note = C;
unicode = 67;
},
{
glyphname = Ccedilla;
layers = (
{
layerId = m01;
shapes = (
{
closed = 1;
nodes = (
(574,122,l),
(518,79,o),
(451,50,o),
(377,50,cs),
(227,50,o),
(132,169,o),
(132,346,cs),
(132,521,o),
(226,641,o),
(378,641,cs),
(448,641,o),
(508,613,o),
(562,574,c),
(573,644,l),
(521,680,o),
(457,703,o),
(379,703,cs),
(189,703,o),
(61,556,o),
(61,344,cs),
(61,131,o),
(187,-13,o),
(374,-13,cs),
(456,-13,o),
(532,17,o),
(584,56,c)
);
},
{
closed = 1;
nodes = (
(418,-74,l),
(334,-54,l),
(250,-188,l),
(296,-188,l)
);
}
);
width = 648;
}
);
note = Ccedilla;
unicode = 199;
},
{
glyphname = D;
layers = (
{
layerId = m01;
shapes = (
{
closed = 1;
nodes = (
(639,551,o),
(510,690,o),
(280,690,cs),
(92,690,l),
(92,0,l),
(277,0,ls),
(499,0,o),
(639,134,o),
(639,346,cs)
);
},
{
closed = 1;
nodes = (
(568,156,o),
(456,62,o),
(281,62,cs),
(161,62,l),
(161,628,l),
(281,628,ls),
(453,628,o),
(568,531,o),
(568,345,cs)
);
}
);
width = 701;
}
);
note = D;
unicode = 68;
},
{
glyphname = Eth;
layers = (
{
layerId = m01;
shapes = (
{
closed = 1;
nodes = (
(660,551,o),
(531,690,o),
(301,690,cs),
(113,690,l),
(113,392,l),
(27,392,l),
(37,331,l),
(113,331,l),
(113,0,l),
(298,0,ls),
(520,0,o),
(660,134,o),
(660,346,cs)
);
},
{
closed = 1;
nodes = (
(589,156,o),
(477,62,o),
(302,62,cs),
(181,62,l),
(181,331,l),
(353,331,l),
(353,392,l),
(181,392,l),
(181,628,l),
(302,628,ls),
(474,628,o),
(589,531,o),
(589,345,cs)
);
}
);
width = 721;
}
);
note = Eth;
unicode = 208;
},
{
glyphname = E;
layers = (
{
layerId = m01;
shapes = (
{
closed = 1;
nodes = (
(462,0,l),
(462,62,l),
(161,62,l),
(161,330,l),
(401,330,l),
(391,392,l),
(161,392,l),
(161,628,l),
(452,628,l),
(452,690,l),
(92,690,l),
(92,0,l)
);
}
);
width = 504;
}
);
note = E;
unicode = 69;
},
{
glyphname = Eacute;
layers = (
{
layerId = m01;
shapes = (
{
closed = 1;
nodes = (
(462,0,l),
(462,62,l),
(161,62,l),
(161,330,l),
(401,330,l),
(391,392,l),
(161,392,l),
(161,628,l),
(452,628,l),
(452,690,l),
(92,690,l),
(92,0,l)
);
},
{
closed = 1;
nodes = (
(398,880,l),
(312,899,l),
(215,746,l),
(261,746,l)
);
}
);
width = 504;
}
);
note = Eacute;
unicode = 201;
},
{
glyphname = Ecircumflex;
layers = (
{
layerId = m01;
shapes = (
{
closed = 1;
nodes = (
(462,0,l),
(462,62,l),
(161,62,l),
(161,330,l),
(401,330,l),
(391,392,l),
(161,392,l),
(161,628,l),
(452,628,l),
(452,690,l),
(92,690,l),
(92,0,l)
);
},
{
closed = 1;
nodes = (
(397,751,l),
(298,891,l),
(237,891,l),
(132,746,l),
(174,746,l),
(266,829,l),
(361,743,l)
);
}
);
width = 504;
}
);
note = Ecircumflex;
unicode = 202;
},
{
glyphname = Edieresis;
layers = (
{
layerId = m01;
shapes = (
{
closed = 1;
nodes = (
(462,0,l),
(462,62,l),
(161,62,l),
(161,330,l),
(401,330,l),
(391,392,l),
(161,392,l),
(161,628,l),
(452,628,l),
(452,690,l),
(92,690,l),
(92,0,l)
);
},
{
closed = 1;
nodes = (
(395,753,l),
(395,841,l),
(312,841,l),
(312,753,l)
);
},
{
closed = 1;
nodes = (
(222,753,l),
(222,841,l),
(140,841,l),
(140,753,l)
);
}
);
width = 504;
}
);
note = Edieresis;
unicode = 203;
},
{
glyphname = Egrave;
layers = (
{
layerId = m01;
shapes = (
{
closed = 1;
nodes = (
(462,0,l),
(462,62,l),
(161,62,l),
(161,330,l),
(401,330,l),
(391,392,l),
(161,392,l),
(161,628,l),
(452,628,l),
(452,690,l),
(92,690,l),
(92,0,l)
);
},
{
closed = 1;
nodes = (
(312,746,l),
(216,899,l),
(130,880,l),
(266,746,l)
);
}
);
width = 504;
}
);
note = Egrave;
unicode = 200;
},
{
glyphname = F;
layers = (
{
layerId = m01;
shapes = (
{
closed = 1;
nodes = (
(438,628,l),
(438,690,l),
(92,690,l),
(92,0,l),
(161,0,l),
(161,319,l),
(393,319,l),
(383,381,l),
(161,381,l),
(161,628,l)
);
}
);
width = 477;
}
);
note = F;
unicode = 70;
},
{
glyphname = G;
layers = (
{
layerId = m01;
shapes = (
{
closed = 1;
nodes = (
(612,362,l),
(368,362,l),
(378,300,l),
(544,300,l),
(544,93,l),
(498,65,o),
(451,50,o),
(386,50,cs),
(224,50,o),
(132,167,o),
(132,345,cs),
(132,523,o),
(224,641,o),
(378,641,cs),
(457,641,o),
(520,613,o),
(571,572,c),
(583,643,l),
(530,681,o),
(464,703,o),
(379,703,cs),
(186,703,o),
(61,556,o),
(61,344,cs),
(61,133,o),
(181,-13,o),
(385,-13,cs),
(474,-13,o),
(548,15,o),
(612,57,c)
);
}
);
width = 694;
}
);
note = G;
unicode = 71;
},
{
glyphname = H;
layers = (
{
layerId = m01;
shapes = (
{
closed = 1;
nodes = (
(613,0,l),
(613,690,l),
(544,690,l),
(544,392,l),
(161,392,l),
(161,690,l),
(92,690,l),
(92,0,l),
(161,0,l),
(161,330,l),
(544,330,l),
(544,0,l)
);
}
);
width = 705;
}
);
note = H;
unicode = 72;
},
{
glyphname = I;
layers = (
{
layerId = m01;
shapes = (
{
closed = 1;
nodes = (
(168,0,l),
(168,690,l),
(99,690,l),
(99,0,l)
);
}
);
width = 268;
}
);
note = I;
unicode = 73;
},
{
glyphname = Iacute;
layers = (
{
layerId = m01;
shapes = (
{
closed = 1;
nodes = (
(293,880,l),
(207,899,l),
(110,746,l),
(156,746,l)
);
},
{
closed = 1;
nodes = (
(168,0,l),
(168,690,l),
(99,690,l),
(99,0,l)
);
}
);
width = 268;
}
);
note = Iacute;
unicode = 205;
},
{
glyphname = Icircumflex;
layers = (
{
layerId = m01;
shapes = (
{
closed = 1;
nodes = (
(168,0,l),
(168,690,l),
(99,690,l),
(99,0,l)
);
},
{
closed = 1;
nodes = (
(264,741,l),
(165,881,l),
(104,881,l),
(-1,736,l),
(41,736,l),
(133,819,l),
(228,733,l)
);
}
);
width = 268;
}
);
note = Icircumflex;
unicode = 206;
},
{
glyphname = Idieresis;
layers = (
{
layerId = m01;
shapes = (
{
closed = 1;
nodes = (
(168,0,l),
(168,690,l),
(99,690,l),
(99,0,l)
);
},
{
closed = 1;
nodes = (
(262,753,l),
(262,841,l),
(179,841,l),
(179,753,l)
);
},
{
closed = 1;
nodes = (
(89,753,l),
(89,841,l),
(7,841,l),
(7,753,l)
);
}
);
width = 268;
}
);
note = Idieresis;
unicode = 207;
},
{
glyphname = Igrave;
layers = (
{
layerId = m01;
shapes = (
{
closed = 1;
nodes = (
(168,0,l),
(168,690,l),
(99,690,l),
(99,0,l)
);
},
{
closed = 1;
nodes = (
(158,746,l),
(62,899,l),
(-24,880,l),
(112,746,l)
);
}
);
width = 268;
}
);
note = Igrave;
unicode = 204;
},
{
glyphname = J;
layers = (
{
layerId = m01;
shapes = (
{
closed = 1;
nodes = (
(276,690,l),
(207,690,l),
(207,169,ls),
(207,91,o),
(167,54,o),
(99,54,cs),
(72,54,o),
(48,58,o),
(27,64,c),
(37,0,l),
(54,-3,o),
(76,-6,o),
(98,-6,cs),
(203,-6,o),
(276,49,o),
(276,168,cs)
);
}
);
width = 364;
}
);
note = J;
unicode = 74;
},
{
glyphname = K;
layers = (
{
layerId = m01;
shapes = (
{
closed = 1;
nodes = (
(589,9,l),
(238,369,l),
(570,690,l),
(484,690,l),
(161,376,l),
(161,690,l),
(92,690,l),
(92,0,l),
(161,0,l),
(161,356,l),
(515,-7,l)
);
}
);
width = 606;
}
);
note = K;
unicode = 75;
},
{
glyphname = L;
layers = (
{
layerId = m01;
shapes = (
{
closed = 1;
nodes = (
(437,0,l),
(427,62,l),
(161,62,l),
(161,690,l),
(92,690,l),
(92,0,l)
);
}
);
width = 466;
}
);
note = L;
unicode = 76;
},
{
glyphname = Lslash;
layers = (
{
layerId = m01;
shapes = (
{
closed = 1;
nodes = (
(458,0,l),
(448,62,l),
(181,62,l),
(181,338,l),
(341,380,l),
(341,442,l),
(181,399,l),
(181,690,l),
(113,690,l),
(113,382,l),
(25,359,l),
(35,300,l),
(113,320,l),
(113,0,l)
);
}
);
width = 487;
}
);
note = Lslash;
unicode = 321;
},
{
glyphname = M;
layers = (
{
layerId = m01;
shapes = (
{
closed = 1;
nodes = (
(831,0,l),
(776,690,l),
(692,690,l),
(454,88,l),
(217,690,l),
(132,690,l),
(77,0,l),
(141,0,l),
(186,589,l),
(426,-4,l),
(480,-4,l),
(719,589,l),
(764,0,l)
);
}
);
width = 907;
}
);
note = M;
unicode = 77;
},
{
glyphname = N;
layers = (
{
layerId = m01;
shapes = (
{
closed = 1;
nodes = (
(613,0,l),
(613,690,l),
(548,690,l),
(548,127,l),
(157,690,l),
(92,690,l),
(92,0,l),
(157,0,l),
(157,581,l),
(560,0,l)
);
}
);
width = 705;
}
);
note = N;
unicode = 78;
},
{
glyphname = Ntilde;
layers = (
{
layerId = m01;
shapes = (
{
closed = 1;
nodes = (
(613,0,l),
(613,690,l),
(548,690,l),
(548,127,l),
(157,690,l),
(92,690,l),
(92,0,l),
(157,0,l),
(157,581,l),
(560,0,l)
);
},
{
closed = 1;
nodes = (
(458,850,l),
(449,813,o),
(438,798,o),
(422,798,cs),
(406,798,o),
(393,805,o),
(359,823,cs),
(327,840,o),
(311,849,o),
(284,849,cs),
(244,849,o),
(217,813,o),
(207,745,c),
(252,736,l),
(260,774,o),
(272,789,o),
(288,789,cs),
(304,789,o),
(316,781,o),
(351,763,cs),
(383,746,o),
(399,738,o),
(426,738,cs),
(465,738,o),
(493,774,o),
(502,841,c)
);
}
);
width = 705;
}
);
note = Ntilde;
unicode = 209;
},
{
glyphname = O;
layers = (
{
layerId = m01;
shapes = (
{
closed = 1;
nodes = (
(684,557,o),
(559,703,o),
(373,703,cs),
(189,703,o),
(61,556,o),
(61,344,cs),
(61,133,o),
(187,-13,o),
(371,-13,cs),
(557,-13,o),
(684,135,o),
(684,346,cs)
);
},
{
closed = 1;
nodes = (
(613,169,o),
(518,49,o),
(373,49,cs),
(228,49,o),
(132,169,o),
(132,346,cs),
(132,521,o),
(227,641,o),
(372,641,cs),
(517,641,o),
(613,521,o),
(613,344,cs)
);
}
);
width = 745;
}
);
note = O;
unicode = 79;
},
{
glyphname = Oacute;
layers = (
{
layerId = m01;
shapes = (
{
closed = 1;
nodes = (
(517,889,l),
(431,908,l),
(334,755,l),
(380,755,l)
);
},
{
closed = 1;
nodes = (
(684,557,o),
(559,703,o),
(373,703,cs),
(189,703,o),
(61,556,o),
(61,344,cs),
(61,133,o),
(187,-13,o),
(371,-13,cs),
(557,-13,o),
(684,135,o),
(684,346,cs)
);
},
{
closed = 1;
nodes = (
(613,169,o),
(518,49,o),
(373,49,cs),
(228,49,o),
(132,169,o),
(132,346,cs),
(132,521,o),
(227,641,o),
(372,641,cs),
(517,641,o),
(613,521,o),
(613,344,cs)
);
}
);
width = 745;
}
);
note = Oacute;
unicode = 211;
},
{
glyphname = Ocircumflex;
layers = (
{
layerId = m01;
shapes = (
{
closed = 1;
nodes = (
(684,557,o),
(559,703,o),
(373,703,cs),
(189,703,o),
(61,556,o),
(61,344,cs),
(61,133,o),
(187,-13,o),
(371,-13,cs),
(557,-13,o),
(684,135,o),
(684,346,cs)
);
},
{
closed = 1;
nodes = (
(613,169,o),
(518,49,o),
(373,49,cs),
(228,49,o),
(132,169,o),
(132,346,cs),
(132,521,o),
(227,641,o),
(372,641,cs),
(517,641,o),
(613,521,o),
(613,344,cs)
);
},
{
closed = 1;
nodes = (
(501,755,l),
(402,895,l),
(341,895,l),
(236,750,l),
(278,750,l),
(370,833,l),
(465,747,l)
);
}
);
width = 745;
}
);
note = Ocircumflex;
unicode = 212;
},
{
glyphname = Odieresis;
layers = (
{
layerId = m01;
shapes = (
{
closed = 1;
nodes = (
(684,557,o),
(559,703,o),
(373,703,cs),
(189,703,o),
(61,556,o),
(61,344,cs),
(61,133,o),
(187,-13,o),
(371,-13,cs),
(557,-13,o),
(684,135,o),
(684,346,cs)
);
},
{
closed = 1;
nodes = (
(613,169,o),
(518,49,o),
(373,49,cs),
(228,49,o),
(132,169,o),
(132,346,cs),
(132,521,o),
(227,641,o),
(372,641,cs),
(517,641,o),
(613,521,o),
(613,344,cs)
);
},
{
closed = 1;
nodes = (
(499,762,l),
(499,850,l),
(416,850,l),
(416,762,l)
);
},
{
closed = 1;
nodes = (
(326,762,l),
(326,850,l),
(244,850,l),
(244,762,l)
);
}
);
width = 745;
}
);
note = Odieresis;
unicode = 214;
},
{
glyphname = Ograve;
layers = (
{
layerId = m01;
shapes = (
{
closed = 1;
nodes = (
(684,557,o),
(559,703,o),
(373,703,cs),
(189,703,o),
(61,556,o),
(61,344,cs),
(61,133,o),
(187,-13,o),
(371,-13,cs),
(557,-13,o),
(684,135,o),
(684,346,cs)
);
},
{
closed = 1;
nodes = (
(613,169,o),
(518,49,o),
(373,49,cs),
(228,49,o),
(132,169,o),
(132,346,cs),
(132,521,o),
(227,641,o),
(372,641,cs),
(517,641,o),
(613,521,o),
(613,344,cs)
);
},
{
closed = 1;
nodes = (
(406,755,l),
(310,908,l),
(224,889,l),
(360,755,l)
);
}
);
width = 745;
}
);
note = Ograve;
unicode = 210;
},
{
glyphname = Oslash;
layers = (
{
layerId = m01;
shapes = (
{
closed = 1;
nodes = (
(688,685,l),
(626,698,l),
(571,630,l),
(518,677,o),
(452,703,o),
(373,703,cs),
(189,703,o),
(61,556,o),
(61,344,cs),
(61,246,o),
(88,162,o),
(136,100,c),
(57,5,l),
(118,-8,l),
(174,60,l),
(226,13,o),
(294,-13,o),
(371,-13,cs),
(557,-13,o),
(684,135,o),
(684,346,cs),
(684,444,o),
(657,528,o),
(609,589,c)
);
},
{
closed = 1;
nodes = (
(180,153,l),
(148,203,o),
(130,269,o),
(130,346,cs),
(130,522,o),
(226,642,o),
(372,642,cs),
(436,642,o),
(489,620,o),
(530,581,c)
);
},
{
closed = 1;
nodes = (
(615,168,o),
(519,48,o),
(373,48,cs),
(310,48,o),
(255,70,o),
(215,109,c),
(566,537,l),
(597,487,o),
(615,421,o),
(615,344,cs)
);
}
);
width = 745;
}
);
note = Oslash;
unicode = 216;
},
{
glyphname = Otilde;
layers = (
{
layerId = m01;
shapes = (
{
closed = 1;
nodes = (
(684,557,o),
(559,703,o),
(373,703,cs),
(189,703,o),
(61,556,o),
(61,344,cs),
(61,133,o),
(187,-13,o),
(371,-13,cs),
(557,-13,o),
(684,135,o),
(684,346,cs)
);
},
{
closed = 1;
nodes = (
(613,169,o),
(518,49,o),
(373,49,cs),
(228,49,o),
(132,169,o),
(132,346,cs),
(132,521,o),
(227,641,o),
(372,641,cs),
(517,641,o),
(613,521,o),
(613,344,cs)
);
},
{
closed = 1;
nodes = (
(474,878,l),
(465,841,o),
(454,826,o),
(438,826,cs),
(422,826,o),
(409,833,o),
(375,851,cs),
(343,868,o),
(327,877,o),
(300,877,cs),
(260,877,o),
(233,841,o),
(223,773,c),
(268,764,l),
(276,802,o),
(288,817,o),
(304,817,cs),
(320,817,o),
(332,809,o),
(367,791,cs),
(399,774,o),
(415,766,o),
(442,766,cs),
(481,766,o),
(509,802,o),
(518,869,c)
);
}
);
width = 745;
}
);
note = Otilde;
unicode = 213;
},
{
glyphname = OE;
layers = (
{
layerId = m01;
shapes = (
{
closed = 1;
nodes = (
(831,0,l),
(831,62,l),
(533,62,l),
(533,330,l),
(770,330,l),
(761,392,l),
(533,392,l),
(533,628,l),
(821,628,l),
(821,690,l),
(421,690,ls),
(199,690,o),
(59,556,o),
(59,344,cs),
(59,140,o),
(189,0,o),
(417,0,cs)
);
},
{
closed = 1;
nodes = (
(464,62,l),
(417,62,ls),
(245,62,o),
(129,160,o),
(129,345,cs),
(129,534,o),
(242,628,o),
(416,628,cs),
(464,628,l)
);
}
);
width = 874;
}
);
note = OE;
unicode = 338;
},
{
glyphname = P;
layers = (
{
layerId = m01;
shapes = (
{
closed = 1;
nodes = (
(489,620,o),
(402,690,o),
(263,690,cs),
(92,690,l),
(92,0,l),
(161,0,l),
(161,291,l),
(247,291,ls),
(388,291,o),
(489,360,o),
(489,496,cs)
);
},
{
closed = 1;
nodes = (
(419,398,o),
(355,352,o),
(250,352,cs),
(161,352,l),
(161,629,l),
(258,629,ls),
(363,629,o),
(419,583,o),
(419,494,cs)
);
}
);
width = 533;
}
);
note = P;
unicode = 80;
},
{
glyphname = Thorn;
layers = (
{
layerId = m01;
shapes = (
{
closed = 1;
nodes = (
(492,483,o),
(404,552,o),
(265,552,cs),
(161,552,l),
(161,690,l),
(92,690,l),
(92,0,l),
(161,0,l),
(161,154,l),
(249,154,ls),
(391,154,o),
(492,223,o),
(492,358,cs)
);
},
{
closed = 1;
nodes = (
(422,261,o),
(358,214,o),
(253,214,cs),
(161,214,l),
(161,492,l),
(261,492,ls),
(365,492,o),
(422,445,o),
(422,356,cs)
);
}
);
width = 537;
}
);
note = Thorn;
unicode = 222;
},
{
glyphname = Q;
layers = (
{
layerId = m01;
shapes = (
{
closed = 1;
nodes = (
(684,557,o),
(559,703,o),
(373,703,cs),
(189,703,o),
(61,556,o),
(61,344,cs),
(61,159,o),
(145,51,o),
(287,-4,cs),
(650,-145,l),
(663,-80,l),
(446,1,l),
(589,33,o),
(684,162,o),
(684,346,cs)
);
},
{
closed = 1;
nodes = (
(613,166,o),
(519,46,o),
(373,46,cs),
(228,46,o),
(132,167,o),
(132,345,cs),
(132,523,o),
(226,641,o),
(372,641,cs),
(517,641,o),
(613,522,o),
(613,344,cs)
);
}
);
width = 747;
}
);
note = Q;
unicode = 81;
},
{
glyphname = R;
layers = (
{
layerId = m01;
shapes = (
{
closed = 1;
nodes = (
(419,410,o),
(355,364,o),
(253,364,cs),
(161,364,l),
(161,629,l),
(265,629,ls),
(365,629,o),
(419,582,o),
(419,498,cs)
);
},
{
closed = 1;
nodes = (
(325,314,l),
(420,334,o),
(489,395,o),
(489,502,cs),
(489,622,o),
(403,690,o),
(268,690,cs),
(92,690,l),
(92,0,l),
(161,0,l),
(161,305,l),
(250,305,l),
(474,-7,l),
(544,8,l)
);
}
);
width = 567;
}
);
note = R;
unicode = 82;
},
{
glyphname = S;
layers = (
{
layerId = m01;
shapes = (
{
closed = 1;
nodes = (
(458,283,o),
(406,333,o),
(278,389,cs),
(172,436,o),
(139,466,o),
(139,529,cs),
(139,589,o),
(184,637,o),
(265,637,cs),
(323,637,o),
(371,619,o),
(410,593,c),
(420,662,l),
(384,683,o),
(333,698,o),
(268,698,cs),
(154,698,o),
(70,629,o),
(70,525,cs),
(70,427,o),
(118,383,o),
(250,325,cs),
(355,279,o),
(389,245,o),
(389,177,cs),
(389,99,o),
(328,53,o),
(247,53,cs),
(177,53,o),
(113,78,o),
(71,105,c),
(61,35,l),
(105,11,o),
(167,-8,o),
(244,-8,cs),
(365,-8,o),
(458,64,o),
(458,182,cs)
);
}
);
width = 512;
}
);
note = S;
unicode = 83;
},
{
glyphname = Scaron;
layers = (
{
layerId = m01;
shapes = (
{
closed = 1;
nodes = (
(458,283,o),
(406,333,o),
(278,389,cs),
(172,436,o),
(139,466,o),
(139,529,cs),
(139,589,o),
(184,637,o),
(265,637,cs),
(323,637,o),
(371,619,o),
(410,593,c),
(420,662,l),
(384,683,o),
(333,698,o),
(268,698,cs),
(154,698,o),
(70,629,o),
(70,525,cs),
(70,427,o),
(118,383,o),
(250,325,cs),
(355,279,o),
(389,245,o),
(389,177,cs),
(389,99,o),
(328,53,o),
(247,53,cs),
(177,53,o),
(113,78,o),
(71,105,c),
(61,35,l),
(105,11,o),
(167,-8,o),
(244,-8,cs),
(365,-8,o),
(458,64,o),
(458,182,cs)
);
},
{
closed = 1;
nodes = (
(391,900,l),
(349,900,l),
(257,816,l),
(162,903,l),
(126,895,l),
(225,755,l),
(287,755,l)
);
}
);
width = 512;
}
);
note = Scaron;
unicode = 352;
},
{
glyphname = T;
layers = (
{
layerId = m01;
shapes = (
{
closed = 1;
nodes = (
(553,628,l),
(543,690,l),
(35,690,l),
(35,628,l),
(259,628,l),
(259,0,l),
(327,0,l),
(327,628,l)
);
}
);
width = 581;
}
);
note = T;
unicode = 84;
},
{
glyphname = U;
layers = (
{
layerId = m01;
shapes = (
{
closed = 1;
nodes = (
(600,690,l),
(531,690,l),
(531,263,ls),
(531,132,o),
(464,51,o),
(340,51,cs),
(213,51,o),
(150,139,o),
(150,267,cs),
(150,690,l),
(81,690,l),
(81,258,ls),
(81,97,o),
(177,-11,o),
(339,-11,cs),
(501,-11,o),
(600,96,o),
(600,263,cs)
);
}
);
width = 681;
}
);
note = U;
unicode = 85;
},
{
glyphname = Uacute;
layers = (
{
layerId = m01;
shapes = (
{
closed = 1;
nodes = (
(482,863,l),
(396,882,l),
(299,729,l),
(345,729,l)
);
},
{
closed = 1;
nodes = (
(600,690,l),
(531,690,l),
(531,263,ls),
(531,132,o),
(464,51,o),
(340,51,cs),
(213,51,o),
(150,139,o),
(150,267,cs),
(150,690,l),
(81,690,l),
(81,258,ls),
(81,97,o),
(177,-11,o),
(339,-11,cs),
(501,-11,o),
(600,96,o),
(600,263,cs)
);
}
);
width = 681;
}
);
note = Uacute;
unicode = 218;
},
{
glyphname = Ucircumflex;
layers = (
{
layerId = m01;
shapes = (
{
closed = 1;
nodes = (
(600,690,l),
(531,690,l),
(531,263,ls),
(531,132,o),
(464,51,o),
(340,51,cs),
(213,51,o),
(150,139,o),
(150,267,cs),
(150,690,l),
(81,690,l),
(81,258,ls),
(81,97,o),
(177,-11,o),
(339,-11,cs),
(501,-11,o),
(600,96,o),
(600,263,cs)
);
},
{
closed = 1;
nodes = (
(470,738,l),
(371,878,l),
(310,878,l),
(205,733,l),
(247,733,l),
(339,816,l),
(434,730,l)
);
}
);
width = 681;
}
);
note = Ucircumflex;
unicode = 219;
},
{
glyphname = Udieresis;
layers = (
{
layerId = m01;
shapes = (
{
closed = 1;
nodes = (
(600,690,l),
(531,690,l),
(531,263,ls),
(531,132,o),
(464,51,o),
(340,51,cs),
(213,51,o),
(150,139,o),
(150,267,cs),
(150,690,l),
(81,690,l),
(81,258,ls),
(81,97,o),
(177,-11,o),
(339,-11,cs),
(501,-11,o),
(600,96,o),
(600,263,cs)
);
},
{
closed = 1;
nodes = (
(468,740,l),
(468,828,l),
(385,828,l),
(385,740,l)
);
},
{
closed = 1;
nodes = (
(295,740,l),
(295,828,l),
(213,828,l),
(213,740,l)
);
}
);
width = 681;
}
);
note = Udieresis;
unicode = 220;
},
{
glyphname = Ugrave;
layers = (
{
layerId = m01;
shapes = (
{
closed = 1;
nodes = (
(600,690,l),
(531,690,l),
(531,263,ls),
(531,132,o),
(464,51,o),
(340,51,cs),
(213,51,o),
(150,139,o),
(150,267,cs),
(150,690,l),
(81,690,l),
(81,258,ls),
(81,97,o),
(177,-11,o),
(339,-11,cs),
(501,-11,o),
(600,96,o),
(600,263,cs)
);
},
{
closed = 1;
nodes = (
(382,729,l),
(286,882,l),
(200,863,l),
(336,729,l)
);
}
);
width = 681;
}
);
note = Ugrave;
unicode = 217;
},
{
glyphname = V;
layers = (
{
layerId = m01;
shapes = (
{
closed = 1;
nodes = (
(641,690,l),
(569,690,l),
(340,85,l),
(107,697,l),
(39,682,l),
(308,-4,l),
(370,-4,l)
);
}
);
width = 680;
}
);
note = V;
unicode = 86;
},
{
glyphname = W;
layers = (
{
layerId = m01;
shapes = (
{
closed = 1;
nodes = (
(980,690,l),
(911,690,l),
(741,106,l),
(549,690,l),
(478,690,l),
(288,106,l),
(116,697,l),
(48,682,l),
(255,-1,l),
(313,-1,l),
(512,595,l),
(712,-1,l),
(772,-1,l)
);
}
);
width = 1026;
}
);
note = W;
unicode = 87;
},
{
glyphname = X;
layers = (
{
layerId = m01;
shapes = (
{
closed = 1;
nodes = (
(279,360,l),
(36,0,l),
(111,0,l),
(111,0,o),
(316,310,o),
(316,309,c),
(317,309,o),
(528,-6,o),
(528,-6,c),
(596,9,l),
(355,362,l),
(576,690,l),
(501,690,l),
(318,413,l),
(128,695,l),
(60,681,l)
);
}
);
width = 635;
}
);
note = X;
unicode = 88;
},
{
glyphname = Y;
layers = (
{
layerId = m01;
shapes = (
{
closed = 1;
nodes = (
(595,690,l),
(520,690,l),
(314,347,l),
(102,697,l),
(34,683,l),
(278,286,l),
(278,0,l),
(347,0,l),
(347,287,l)
);
}
);
width = 628;
}
);
note = Y;
unicode = 89;
},
{
glyphname = Yacute;
layers = (
{
layerId = m01;
shapes = (
{
closed = 1;
nodes = (
(595,690,l),
(520,690,l),
(314,347,l),
(102,697,l),
(34,683,l),
(278,286,l),
(278,0,l),
(347,0,l),
(347,287,l)
);
},
{
closed = 1;
nodes = (
(461,857,l),
(375,876,l),
(278,723,l),
(324,723,l)
);
}
);
width = 628;
}
);
note = Yacute;
unicode = 221;
},
{
glyphname = Ydieresis;
layers = (
{
layerId = m01;
shapes = (
{
closed = 1;
nodes = (
(595,690,l),
(520,690,l),
(314,347,l),
(102,697,l),
(34,683,l),
(278,286,l),
(278,0,l),
(347,0,l),
(347,287,l)
);
},
{
closed = 1;
nodes = (
(442,739,l),
(442,827,l),
(359,827,l),
(359,739,l)
);
},
{
closed = 1;
nodes = (
(269,739,l),
(269,827,l),
(187,827,l),
(187,739,l)
);
}
);
width = 628;
}
);
note = Ydieresis;
unicode = 376;
},
{
glyphname = Z;
layers = (
{
layerId = m01;
shapes = (
{
closed = 1;
nodes = (
(555,0,l),
(546,59,l),
(141,59,l),
(548,641,l),
(548,690,l),
(77,690,l),
(86,631,l),
(465,631,l),
(57,49,l),
(57,0,l)
);
}
);
width = 608;
}
);
note = Z;
unicode = 90;
},
{
glyphname = Zcaron;
layers = (
{
layerId = m01;
shapes = (
{
closed = 1;
nodes = (
(555,0,l),
(546,59,l),
(141,59,l),
(548,641,l),
(548,690,l),
(77,690,l),
(86,631,l),
(465,631,l),
(57,49,l),
(57,0,l)
);
},
{
closed = 1;
nodes = (
(444,891,l),
(402,891,l),
(310,807,l),
(215,894,l),
(179,886,l),
(278,746,l),
(340,746,l)
);
}
);
width = 608;
}
);
note = Zcaron;
unicode = 381;
},
{
glyphname = a;
layers = (
{
layerId = m01;
shapes = (
{
closed = 1;
nodes = (
(416,0,l),
(416,337,ls),
(416,434,o),
(362,483,o),
(257,483,cs),
(190,483,o),
(136,466,o),
(81,442,c),
(90,383,l),
(142,408,o),
(197,425,o),
(253,425,cs),
(313,425,o),
(351,398,o),
(351,334,cs),
(351,303,l),
(137,282,o),
(47,230,o),
(47,119,cs),
(47,35,o),
(106,-10,o),
(188,-10,cs),
(256,-10,o),
(311,22,o),
(355,63,c),
(366,0,l)
);
},
{
closed = 1;
nodes = (
(351,117,l),
(305,74,o),
(249,46,o),
(198,46,cs),
(148,46,o),
(113,72,o),
(113,123,cs),
(113,187,o),
(165,232,o),
(351,251,c)
);
}
);
width = 489;
}
);
note = a;
unicode = 97;
},
{
glyphname = aacute;
layers = (
{
layerId = m01;
shapes = (
{
closed = 1;
nodes = (
(416,0,l),
(416,337,ls),
(416,434,o),
(362,483,o),
(257,483,cs),
(190,483,o),
(136,466,o),
(81,442,c),
(90,383,l),
(142,408,o),
(197,425,o),
(253,425,cs),
(313,425,o),
(351,398,o),
(351,334,cs),
(351,303,l),
(137,282,o),
(47,230,o),
(47,119,cs),
(47,35,o),
(106,-10,o),
(188,-10,cs),
(256,-10,o),
(311,22,o),
(355,63,c),
(366,0,l)
);
},
{
closed = 1;
nodes = (
(351,117,l),
(305,74,o),
(249,46,o),
(198,46,cs),
(148,46,o),
(113,72,o),
(113,123,cs),
(113,187,o),
(165,232,o),
(351,251,c)
);
},
{
closed = 1;
nodes = (
(388,684,l),
(302,703,l),
(205,550,l),
(251,550,l)
);
}
);
width = 489;
}
);
note = aacute;
unicode = 225;
},
{
glyphname = acircumflex;
layers = (
{
layerId = m01;
shapes = (
{
closed = 1;
nodes = (
(416,0,l),
(416,337,ls),
(416,434,o),
(362,483,o),
(257,483,cs),
(190,483,o),
(136,466,o),
(81,442,c),
(90,383,l),
(142,408,o),
(197,425,o),
(253,425,cs),
(313,425,o),
(351,398,o),
(351,334,cs),
(351,303,l),
(137,282,o),
(47,230,o),
(47,119,cs),
(47,35,o),
(106,-10,o),
(188,-10,cs),
(256,-10,o),
(311,22,o),
(355,63,c),
(366,0,l)
);
},
{
closed = 1;
nodes = (
(351,117,l),
(305,74,o),
(249,46,o),
(198,46,cs),
(148,46,o),
(113,72,o),
(113,123,cs),
(113,187,o),
(165,232,o),
(351,251,c)
);
},
{
closed = 1;
nodes = (
(375,555,l),
(276,695,l),
(215,695,l),
(110,550,l),
(152,550,l),
(244,633,l),
(339,547,l)
);
}
);
width = 489;
}
);
note = acircumflex;
unicode = 226;
},
{
glyphname = adieresis;
layers = (
{
layerId = m01;
shapes = (
{
closed = 1;
nodes = (
(416,0,l),
(416,337,ls),
(416,434,o),
(362,483,o),
(257,483,cs),
(190,483,o),
(136,466,o),
(81,442,c),
(90,383,l),
(142,408,o),
(197,425,o),
(253,425,cs),
(313,425,o),
(351,398,o),
(351,334,cs),
(351,303,l),
(137,282,o),
(47,230,o),
(47,119,cs),
(47,35,o),
(106,-10,o),
(188,-10,cs),
(256,-10,o),
(311,22,o),
(355,63,c),
(366,0,l)
);
},
{
closed = 1;
nodes = (
(351,117,l),
(305,74,o),
(249,46,o),
(198,46,cs),
(148,46,o),
(113,72,o),
(113,123,cs),
(113,187,o),
(165,232,o),
(351,251,c)
);
},
{
closed = 1;
nodes = (
(375,557,l),
(375,645,l),
(292,645,l),
(292,557,l)
);
},
{
closed = 1;
nodes = (
(202,557,l),
(202,645,l),
(120,645,l),
(120,557,l)
);
}
);
width = 489;
}
);
note = adieresis;
unicode = 228;
},
{
glyphname = agrave;
layers = (
{
layerId = m01;
shapes = (
{
closed = 1;
nodes = (
(416,0,l),
(416,337,ls),
(416,434,o),
(362,483,o),
(257,483,cs),
(190,483,o),
(136,466,o),
(81,442,c),
(90,383,l),
(142,408,o),
(197,425,o),
(253,425,cs),
(313,425,o),
(351,398,o),
(351,334,cs),
(351,303,l),
(137,282,o),
(47,230,o),
(47,119,cs),
(47,35,o),
(106,-10,o),
(188,-10,cs),
(256,-10,o),
(311,22,o),
(355,63,c),
(366,0,l)
);
},
{
closed = 1;
nodes = (
(351,117,l),
(305,74,o),
(249,46,o),
(198,46,cs),
(148,46,o),
(113,72,o),
(113,123,cs),
(113,187,o),
(165,232,o),
(351,251,c)
);
},
{
closed = 1;
nodes = (
(278,550,l),
(182,703,l),
(96,684,l),
(232,550,l)
);
}
);
width = 489;
}
);
note = agrave;
unicode = 224;
},
{
glyphname = aring;
layers = (
{
layerId = m01;
shapes = (
{
closed = 1;
nodes = (
(416,0,l),
(416,337,ls),
(416,434,o),
(362,483,o),
(257,483,cs),
(190,483,o),
(136,466,o),
(81,442,c),
(90,383,l),
(142,408,o),
(197,425,o),
(253,425,cs),
(313,425,o),
(351,398,o),
(351,334,cs),
(351,303,l),
(137,282,o),
(47,230,o),
(47,119,cs),
(47,35,o),
(106,-10,o),
(188,-10,cs),
(256,-10,o),
(311,22,o),
(355,63,c),
(366,0,l)
);
},
{
closed = 1;
nodes = (
(351,117,l),
(305,74,o),
(249,46,o),
(198,46,cs),
(148,46,o),
(113,72,o),
(113,123,cs),
(113,187,o),
(165,232,o),
(351,251,c)
);
},
{
closed = 1;
nodes = (
(343,699,o),
(301,743,o),
(245,743,cs),
(189,743,o),
(147,699,o),
(147,644,cs),
(147,588,o),
(189,548,o),
(245,548,cs),
(301,548,o),
(343,588,o),
(343,644,cs)
);
},
{
closed = 1;
nodes = (
(303,609,o),
(279,584,o),
(245,584,cs),
(212,584,o),
(186,609,o),
(186,644,cs),
(186,679,o),
(212,706,o),
(245,706,cs),
(279,706,o),
(303,679,o),
(303,644,cs)
);
}
);
width = 489;
}
);
note = aring;
unicode = 229;
},
{
glyphname = atilde;
layers = (
{
layerId = m01;
shapes = (
{
closed = 1;
nodes = (
(416,0,l),
(416,337,ls),
(416,434,o),
(362,483,o),
(257,483,cs),
(190,483,o),
(136,466,o),
(81,442,c),
(90,383,l),
(142,408,o),
(197,425,o),
(253,425,cs),
(313,425,o),
(351,398,o),
(351,334,cs),
(351,303,l),
(137,282,o),
(47,230,o),
(47,119,cs),
(47,35,o),
(106,-10,o),
(188,-10,cs),
(256,-10,o),
(311,22,o),
(355,63,c),
(366,0,l)
);
},
{
closed = 1;
nodes = (
(351,117,l),
(305,74,o),
(249,46,o),
(198,46,cs),
(148,46,o),
(113,72,o),
(113,123,cs),
(113,187,o),
(165,232,o),
(351,251,c)
);
},
{
closed = 1;
nodes = (
(349,668,l),
(340,631,o),
(329,616,o),
(313,616,cs),
(297,616,o),
(284,623,o),
(250,641,cs),
(218,658,o),
(202,667,o),
(175,667,cs),
(135,667,o),
(108,631,o),
(98,563,c),
(143,554,l),
(151,592,o),
(163,607,o),
(179,607,cs),
(195,607,o),
(207,599,o),
(242,581,cs),
(274,564,o),
(290,556,o),
(317,556,cs),
(356,556,o),
(384,592,o),
(393,659,c)
);
}
);
width = 489;
}
);
note = atilde;
unicode = 227;
},
{
glyphname = ae;
layers = (
{
layerId = m01;
shapes = (
{
closed = 1;
nodes = (
(740,377,o),
(679,483,o),
(551,483,cs),
(485,483,o),
(431,453,o),
(397,398,c),
(379,455,o),
(336,483,o),
(254,483,cs),
(190,483,o),
(135,466,o),
(81,442,c),
(90,383,l),
(142,408,o),
(197,425,o),
(253,425,cs),
(313,425,o),
(347,398,o),
(347,336,cs),
(347,302,l),
(133,281,o),
(47,227,o),
(47,119,cs),
(47,36,o),
(110,-10,o),
(196,-10,cs),
(275,-10,o),
(338,27,o),
(390,75,c),
(429,20,o),
(489,-10,o),
(559,-10,cs),
(632,-10,o),
(692,18,o),
(739,57,c),
(730,117,l),
(680,75,o),
(625,47,o),
(563,47,cs),
(472,47,o),
(414,116,o),
(412,232,c),
(740,232,l),
(740,237,o),
(740,242,o),
(740,246,cs)
);
},
{
closed = 1;
nodes = (
(415,284,l),
(427,375,o),
(477,430,o),
(551,430,cs),
(626,430,o),
(666,369,o),
(673,284,c)
);
},
{
closed = 1;
nodes = (
(315,74,o),
(260,46,o),
(203,46,cs),
(148,46,o),
(113,75,o),
(113,124,cs),
(113,187,o),
(164,231,o),
(347,251,c),
(347,248,o),
(347,241,o),
(347,237,cs),
(347,194,o),
(354,155,o),
(366,121,c)
);
}
);
width = 790;
}
);
note = ae;
unicode = 230;
},
{
glyphname = b;
layers = (
{
layerId = m01;
shapes = (
{
closed = 1;
nodes = (
(479,408,o),
(392,483,o),
(289,483,cs),
(223,483,o),
(177,448,o),
(143,411,c),
(143,718,l),
(77,706,l),
(77,25,l),
(130,7,o),
(183,-6,o),
(249,-6,cs),
(380,-6,o),
(479,77,o),
(479,250,cs)
);
},
{
closed = 1;
nodes = (
(412,112,o),
(346,51,o),
(252,51,cs),
(204,51,o),
(173,58,o),
(143,70,c),
(143,342,l),
(185,391,o),
(229,424,o),
(282,424,cs),
(357,424,o),
(412,362,o),
(412,247,cs)
);
}
);
width = 528;
}
);
note = b;
unicode = 98;
},
{
glyphname = c;
layers = (
{
layerId = m01;
shapes = (
{
closed = 1;
nodes = (
(413,104,l),
(364,62,o),
(319,48,o),
(269,48,cs),
(173,48,o),
(115,120,o),
(115,237,cs),
(115,353,o),
(173,426,o),
(263,426,cs),
(317,426,o),
(362,407,o),
(407,369,c),
(418,435,l),
(379,463,o),
(328,483,o),
(264,483,cs),
(144,483,o),
(48,395,o),
(48,236,cs),
(48,80,o),
(141,-10,o),
(262,-10,cs),
(325,-10,o),
(376,8,o),
(422,44,c)
);
}
);
width = 466;
}
);
note = c;
unicode = 99;
},
{
glyphname = ccedilla;
layers = (
{
layerId = m01;
shapes = (
{
closed = 1;
nodes = (
(413,104,l),
(364,62,o),
(319,48,o),
(269,48,cs),
(173,48,o),
(115,120,o),
(115,237,cs),
(115,353,o),
(173,426,o),
(263,426,cs),
(317,426,o),
(362,407,o),
(407,369,c),
(418,435,l),
(379,463,o),
(328,483,o),
(264,483,cs),
(144,483,o),
(48,395,o),
(48,236,cs),
(48,80,o),
(141,-10,o),
(262,-10,cs),
(325,-10,o),
(376,8,o),
(422,44,c)
);
},
{
closed = 1;
nodes = (
(320,-74,l),
(236,-54,l),
(152,-188,l),
(198,-188,l)
);
}
);
width = 466;
}
);
note = ccedilla;
unicode = 231;
},
{
glyphname = d;
layers = (
{
layerId = m01;
shapes = (
{
closed = 1;
nodes = (
(454,0,l),
(454,718,l),
(388,706,l),
(388,456,l),
(355,471,o),
(313,480,o),
(265,480,cs),
(150,480,o),
(49,396,o),
(49,223,cs),
(49,64,o),
(136,-10,o),
(240,-10,cs),
(309,-10,o),
(356,26,o),
(392,69,c),
(404,0,l)
);
},
{
closed = 1;
nodes = (
(388,134,l),
(346,83,o),
(302,49,o),
(246,49,cs),
(171,49,o),
(116,111,o),
(116,226,cs),
(116,359,o),
(182,423,o),
(267,423,cs),
(316,423,o),
(351,414,o),
(388,395,c)
);
}
);
width = 531;
}
);
note = d;
unicode = 100;
},
{
glyphname = eth;
layers = (
{
layerId = m01;
shapes = (
{
closed = 1;
nodes = (
(474,447,o),
(430,555,o),
(346,627,c),
(399,706,l),
(343,718,l),
(303,658,l),
(262,684,o),
(215,704,o),
(159,718,c),
(150,663,l),
(197,650,o),
(237,633,o),
(272,610,c),
(207,511,l),
(268,511,l),
(312,578,l),
(359,533,o),
(390,473,o),
(402,392,c),
(363,424,o),
(314,447,o),
(250,447,cs),
(137,447,o),
(48,343,o),
(48,213,cs),
(48,73,o),
(137,-10,o),
(252,-10,cs),
(307,-10,o),
(353,8,o),
(391,47,cs),
(443,99,o),
(474,182,o),
(474,301,cs)
);
},
{
closed = 1;
nodes = (
(410,313,o),
(410,304,o),
(410,295,cs),
(410,137,o),
(347,46,o),
(258,46,cs),
(170,46,o),
(115,112,o),
(115,217,cs),
(115,314,o),
(172,391,o),
(256,391,cs),
(315,391,o),
(368,364,o),
(409,321,c)
);
}
);
width = 530;
}
);
note = eth;
unicode = 240;
},
{
glyphname = e;
layers = (
{
layerId = m01;
shapes = (
{
closed = 1;
nodes = (
(443,377,o),
(381,483,o),
(252,483,cs),
(136,483,o),
(48,389,o),
(48,237,cs),
(48,74,o),
(137,-10,o),
(261,-10,cs),
(334,-10,o),
(395,17,o),
(442,57,c),
(432,117,l),
(383,75,o),
(328,47,o),
(265,47,cs),
(170,47,o),
(116,116,o),
(114,232,c),
(443,232,l),
(443,237,o),
(443,242,o),
(443,246,cs)
);
},
{
closed = 1;
nodes = (
(117,284,l),
(130,375,o),
(178,430,o),
(252,430,cs),
(328,430,o),
(368,369,o),
(375,284,c)
);
}
);
width = 491;
}
);
note = e;
unicode = 101;
},
{
glyphname = eacute;
layers = (
{
layerId = m01;
shapes = (
{
closed = 1;
nodes = (
(443,377,o),
(381,483,o),
(252,483,cs),
(136,483,o),
(48,389,o),
(48,237,cs),
(48,74,o),
(137,-10,o),
(261,-10,cs),
(334,-10,o),
(395,17,o),
(442,57,c),
(432,117,l),
(383,75,o),
(328,47,o),
(265,47,cs),
(170,47,o),
(116,116,o),
(114,232,c),
(443,232,l),
(443,237,o),
(443,242,o),
(443,246,cs)
);
},
{
closed = 1;
nodes = (
(117,284,l),
(130,375,o),
(178,430,o),
(252,430,cs),
(328,430,o),
(368,369,o),
(375,284,c)
);
},
{
closed = 1;
nodes = (
(395,684,l),
(309,703,l),
(212,550,l),
(258,550,l)
);
}
);
width = 491;
}
);
note = eacute;
unicode = 233;
},
{
glyphname = ecircumflex;
layers = (
{
layerId = m01;
shapes = (
{
closed = 1;
nodes = (
(443,377,o),
(381,483,o),
(252,483,cs),
(136,483,o),
(48,389,o),
(48,237,cs),
(48,74,o),
(137,-10,o),
(261,-10,cs),
(334,-10,o),
(395,17,o),
(442,57,c),
(432,117,l),
(383,75,o),
(328,47,o),
(265,47,cs),
(170,47,o),
(116,116,o),
(114,232,c),
(443,232,l),
(443,237,o),
(443,242,o),
(443,246,cs)
);
},
{
closed = 1;
nodes = (
(117,284,l),
(130,375,o),
(178,430,o),
(252,430,cs),
(328,430,o),
(368,369,o),
(375,284,c)
);
},
{
closed = 1;
nodes = (
(382,555,l),
(283,695,l),
(222,695,l),
(117,550,l),
(159,550,l),
(251,633,l),
(346,547,l)
);
}
);
width = 491;
}
);
note = ecircumflex;
unicode = 234;
},
{
glyphname = edieresis;
layers = (
{
layerId = m01;
shapes = (
{
closed = 1;
nodes = (
(443,377,o),
(381,483,o),
(252,483,cs),
(136,483,o),
(48,389,o),
(48,237,cs),
(48,74,o),
(137,-10,o),
(261,-10,cs),
(334,-10,o),
(395,17,o),
(442,57,c),
(432,117,l),
(383,75,o),
(328,47,o),
(265,47,cs),
(170,47,o),
(116,116,o),
(114,232,c),
(443,232,l),
(443,237,o),
(443,242,o),
(443,246,cs)
);
},
{
closed = 1;
nodes = (
(117,284,l),
(130,375,o),
(178,430,o),
(252,430,cs),
(328,430,o),
(368,369,o),
(375,284,c)
);
},
{
closed = 1;
nodes = (
(380,557,l),
(380,645,l),
(297,645,l),
(297,557,l)
);
},
{
closed = 1;
nodes = (
(207,557,l),
(207,645,l),
(125,645,l),
(125,557,l)
);
}
);
width = 491;
}
);
note = edieresis;
unicode = 235;
},
{
glyphname = egrave;
layers = (
{
layerId = m01;
shapes = (
{
closed = 1;
nodes = (
(443,377,o),
(381,483,o),
(252,483,cs),
(136,483,o),
(48,389,o),
(48,237,cs),
(48,74,o),
(137,-10,o),
(261,-10,cs),
(334,-10,o),
(395,17,o),
(442,57,c),
(432,117,l),
(383,75,o),
(328,47,o),
(265,47,cs),
(170,47,o),
(116,116,o),
(114,232,c),
(443,232,l),
(443,237,o),
(443,242,o),
(443,246,cs)
);
},
{
closed = 1;
nodes = (
(117,284,l),
(130,375,o),
(178,430,o),
(252,430,cs),
(328,430,o),
(368,369,o),
(375,284,c)
);
},
{
closed = 1;
nodes = (
(281,550,l),
(185,703,l),
(99,684,l),
(235,550,l)
);
}
);
width = 491;
}
);
note = egrave;
unicode = 232;
},
{
glyphname = f;
layers = (
{
layerId = m01;
shapes = (
{
closed = 1;
nodes = (
(271,713,l),
(262,714,o),
(254,715,o),
(237,715,cs),
(156,715,o),
(104,675,o),
(104,588,cs),
(104,473,l),
(32,473,l),
(32,417,l),
(104,417,l),
(104,0,l),
(169,0,l),
(169,417,l),
(275,417,l),
(266,473,l),
(169,473,l),
(169,583,ls),
(169,635,o),
(196,655,o),
(241,655,cs),
(259,655,o),
(272,654,o),
(281,652,c)
);
}
);
width = 298;
}
);
note = f;
unicode = 102;
},
{
glyphname = g;
layers = (
{
layerId = m01;
shapes = (
{
closed = 1;
nodes = (
(201,43,o),
(217,40,o),
(241,35,cs),
(287,27,ls),
(371,11,o),
(401,-9,o),
(401,-46,cs),
(401,-93,o),
(339,-130,o),
(243,-130,cs),
(150,-130,o),
(88,-102,o),
(88,-53,cs),
(88,-15,o),
(119,17,o),
(184,47,c)
);
},
{
closed = 1;
nodes = (
(345,258,o),
(302,210,o),
(233,210,cs),
(164,210,o),
(121,259,o),
(121,320,cs),
(121,385,o),
(164,434,o),
(231,434,cs),
(299,434,o),
(345,385,o),
(345,322,cs)
);
},
{
closed = 1;
nodes = (
(351,443,l),
(319,469,o),
(278,483,o),
(231,483,cs),
(139,483,o),
(56,422,o),
(56,322,cs),
(56,257,o),
(91,207,o),
(143,181,c),
(113,162,o),
(96,143,o),
(96,118,cs),
(96,100,o),
(107,83,o),
(131,69,c),
(60,32,o),
(23,-9,o),
(23,-57,cs),
(23,-139,o),
(117,-180,o),
(239,-180,cs),
(361,-180,o),
(464,-129,o),
(464,-38,cs),
(464,32,o),
(407,63,o),
(302,82,cs),
(267,89,ls),
(180,105,o),
(161,112,o),
(161,131,cs),
(161,142,o),
(172,154,o),
(192,165,c),
(205,162,o),
(219,161,o),
(233,161,cs),
(327,161,o),
(410,222,o),
(410,322,cs),
(410,354,o),
(401,382,o),
(385,406,c),
(480,416,l),
(469,481,l)
);
}
);
width = 502;
}
);
note = g;
unicode = 103;
},
{
glyphname = h;
layers = (
{
layerId = m01;
shapes = (
{
closed = 1;
nodes = (
(450,0,l),
(450,339,ls),
(450,429,o),
(403,483,o),
(309,483,cs),
(245,483,o),
(192,449,o),
(143,406,c),
(143,718,l),
(77,706,l),
(77,0,l),
(143,0,l),
(143,342,l),
(195,393,o),
(246,424,o),
(296,424,cs),
(356,424,o),
(384,387,o),
(384,326,cs),
(384,0,l)
);
}
);
width = 523;
}
);
note = h;
unicode = 104;
},
{
glyphname = i;
layers = (
{
layerId = m01;
shapes = (
{
closed = 1;
nodes = (
(164,660,o),
(143,682,o),
(117,682,cs),
(91,682,o),
(69,660,o),
(69,634,cs),
(69,608,o),
(91,586,o),
(117,586,cs),
(143,586,o),
(164,608,o),
(164,634,cs)
);
},
{
closed = 1;
nodes = (
(149,0,l),
(149,473,l),
(84,473,l),
(84,0,l)
);
}
);
width = 233;
}
);
note = i;
unicode = 105;
},
{
glyphname = idotless;
layers = (
{
layerId = m01;
shapes = (
{
closed = 1;
nodes = (
(151,0,l),
(151,473,l),
(86,473,l),
(86,0,l)
);
}
);
width = 233;
}
);
note = dotlessi;
unicode = 305;
},
{
glyphname = iacute;
layers = (
{
layerId = m01;
shapes = (
{
closed = 1;
nodes = (
(250,684,l),
(176,703,l),
(94,550,l),
(133,550,l)
);
},
{
closed = 1;
nodes = (
(151,0,l),
(151,473,l),
(86,473,l),
(86,0,l)
);
}
);
width = 233;
}
);
note = iacute;
unicode = 237;
},
{
glyphname = icircumflex;
layers = (
{
layerId = m01;
shapes = (
{
closed = 1;
nodes = (
(235,555,l),
(147,695,l),
(91,695,l),
(-3,550,l),
(35,550,l),
(117,632,l),
(203,547,l)
);
},
{
closed = 1;
nodes = (
(151,0,l),
(151,473,l),
(86,473,l),
(86,0,l)
);
}
);
width = 233;
}
);
note = icircumflex;
unicode = 238;
},
{
glyphname = idieresis;
layers = (
{
layerId = m01;
shapes = (
{
closed = 1;
nodes = (
(233,557,l),
(233,645,l),
(156,645,l),
(156,557,l)
);
},
{
closed = 1;
nodes = (
(79,557,l),
(79,645,l),
(2,645,l),
(2,557,l)
);
},
{
closed = 1;
nodes = (
(151,0,l),
(151,473,l),
(86,473,l),
(86,0,l)
);
}
);
width = 233;
}
);
note = idieresis;
unicode = 239;
},
{
glyphname = igrave;
layers = (
{
layerId = m01;
shapes = (
{
closed = 1;
nodes = (
(143,550,l),
(62,703,l),
(-12,684,l),
(104,550,l)
);
},
{
closed = 1;
nodes = (
(151,0,l),
(151,473,l),
(86,473,l),
(86,0,l)
);
}
);
width = 233;
}
);
note = igrave;
unicode = 236;
},
{
glyphname = j;
layers = (
{
layerId = m01;
shapes = (
{
closed = 1;
nodes = (
(164,660,o),
(143,682,o),
(117,682,cs),
(91,682,o),
(69,660,o),
(69,634,cs),
(69,608,o),
(91,586,o),
(117,586,cs),
(143,586,o),
(164,608,o),
(164,634,cs)
);
},
{
closed = 1;
nodes = (
(149,473,l),
(84,473,l),
(84,-66,ls),
(84,-106,o),
(65,-122,o),
(33,-122,cs),
(19,-122,o),
(6,-121,o),
(-6,-118,c),
(4,-177,l),
(12,-179,o),
(29,-180,o),
(42,-180,cs),
(104,-180,o),
(149,-148,o),
(149,-73,cs)
);
}
);
width = 233;
}
);
note = j;
unicode = 106;
},
{
glyphname = k;
layers = (
{
layerId = m01;
shapes = (
{
closed = 1;
nodes = (
(450,6,l),
(213,262,l),
(433,473,l),
(350,473,l),
(143,270,l),
(143,718,l),
(77,706,l),
(77,0,l),
(143,0,l),
(143,251,l),
(378,-7,l)
);
}
);
width = 466;
}
);
note = k;
unicode = 107;
},
{
glyphname = l;
layers = (
{
layerId = m01;
shapes = (
{
closed = 1;
nodes = (
(149,0,l),
(149,718,l),
(84,706,l),
(84,0,l)
);
}
);
width = 234;
}
);
note = l;
unicode = 108;
},
{
glyphname = lslash;
layers = (
{
layerId = m01;
shapes = (
{
closed = 1;
nodes = (
(255,377,l),
(255,436,l),
(170,414,l),
(170,718,l),
(105,706,l),
(105,398,l),
(16,374,l),
(26,317,l),
(105,338,l),
(105,0,l),
(170,0,l),
(170,354,l)
);
}
);
width = 275;
}
);
note = lslash;
unicode = 322;
},
{
glyphname = m;
layers = (
{
layerId = m01;
shapes = (
{
closed = 1;
nodes = (
(746,0,l),
(746,339,ls),
(746,429,o),
(702,483,o),
(608,483,cs),
(543,483,o),
(488,448,o),
(436,401,c),
(419,453,o),
(379,483,o),
(306,483,cs),
(243,483,o),
(190,450,o),
(139,405,c),
(128,473,l),
(77,473,l),
(77,0,l),
(143,0,l),
(143,344,l),
(194,394,o),
(244,424,o),
(293,424,cs),
(354,424,o),
(379,387,o),
(379,326,cs),
(379,0,l),
(444,0,l),
(444,343,l),
(496,394,o),
(545,424,o),
(594,424,cs),
(655,424,o),
(680,387,o),
(680,326,cs),
(680,0,l)
);
}
);
width = 819;
}
);
note = m;
unicode = 109;
},
{
glyphname = n;
layers = (
{
layerId = m01;
shapes = (
{
closed = 1;
nodes = (
(450,0,l),
(450,338,ls),
(450,429,o),
(403,483,o),
(309,483,cs),
(245,483,o),
(191,449,o),
(139,403,c),
(128,473,l),
(77,473,l),
(77,0,l),
(143,0,l),
(143,342,l),
(195,393,o),
(246,424,o),
(296,424,cs),
(356,424,o),
(384,387,o),
(384,326,cs),
(384,0,l)
);
}
);
width = 523;
}
);
note = n;
unicode = 110;
},
{
glyphname = ntilde;
layers = (
{
layerId = m01;
shapes = (
{
closed = 1;
nodes = (
(450,0,l),
(450,338,ls),
(450,429,o),
(403,483,o),
(309,483,cs),
(245,483,o),
(191,449,o),
(139,403,c),
(128,473,l),
(77,473,l),
(77,0,l),
(143,0,l),
(143,342,l),
(195,393,o),
(246,424,o),
(296,424,cs),
(356,424,o),
(384,387,o),
(384,326,cs),
(384,0,l)
);
},
{
closed = 1;
nodes = (
(370,668,l),
(361,631,o),
(350,616,o),
(334,616,cs),
(318,616,o),
(305,623,o),
(271,641,cs),
(239,658,o),
(223,667,o),
(196,667,cs),
(156,667,o),
(129,631,o),
(119,563,c),
(164,554,l),
(172,592,o),
(184,607,o),
(200,607,cs),
(216,607,o),
(228,599,o),
(263,581,cs),
(295,564,o),
(311,556,o),
(338,556,cs),
(377,556,o),
(405,592,o),
(414,659,c)
);
}
);
width = 523;
}
);
note = ntilde;
unicode = 241;
},
{
glyphname = o;
layers = (
{
layerId = m01;
shapes = (
{
closed = 1;
nodes = (
(475,393,o),
(383,483,o),
(260,483,cs),
(141,483,o),
(48,393,o),
(48,236,cs),
(48,80,o),
(139,-10,o),
(260,-10,cs),
(381,-10,o),
(475,80,o),
(475,236,cs)
);
},
{
closed = 1;
nodes = (
(407,124,o),
(356,46,o),
(260,46,cs),
(167,46,o),
(115,127,o),
(115,236,cs),
(115,348,o),
(166,427,o),
(260,427,cs),
(355,427,o),
(407,345,o),
(407,236,cs)
);
}
);
width = 523;
}
);
note = o;
unicode = 111;
},
{
glyphname = oacute;
layers = (
{
layerId = m01;
shapes = (
{
closed = 1;
nodes = (
(416,684,l),
(330,703,l),
(233,550,l),
(279,550,l)
);
},
{
closed = 1;
nodes = (
(475,393,o),
(383,483,o),
(260,483,cs),
(141,483,o),
(48,393,o),
(48,236,cs),
(48,80,o),
(139,-10,o),
(260,-10,cs),
(381,-10,o),
(475,80,o),
(475,236,cs)
);
},
{
closed = 1;
nodes = (
(407,124,o),
(356,46,o),
(260,46,cs),
(167,46,o),
(115,127,o),
(115,236,cs),
(115,348,o),
(166,427,o),
(260,427,cs),
(355,427,o),
(407,345,o),
(407,236,cs)
);
}
);
width = 523;
}
);
note = oacute;
unicode = 243;
},
{
glyphname = ocircumflex;
layers = (
{
layerId = m01;
shapes = (
{
closed = 1;
nodes = (
(475,393,o),
(383,483,o),
(260,483,cs),
(141,483,o),
(48,393,o),
(48,236,cs),
(48,80,o),
(139,-10,o),
(260,-10,cs),
(381,-10,o),
(475,80,o),
(475,236,cs)
);
},
{
closed = 1;
nodes = (
(407,124,o),
(356,46,o),
(260,46,cs),
(167,46,o),
(115,127,o),
(115,236,cs),
(115,348,o),
(166,427,o),
(260,427,cs),
(355,427,o),
(407,345,o),
(407,236,cs)
);
},
{
closed = 1;
nodes = (
(391,555,l),
(292,695,l),
(231,695,l),
(126,550,l),
(168,550,l),
(260,633,l),
(355,547,l)
);
}
);
width = 523;
}
);
note = ocircumflex;
unicode = 244;
},
{
glyphname = odieresis;
layers = (
{
layerId = m01;
shapes = (
{
closed = 1;
nodes = (
(475,393,o),
(383,483,o),
(260,483,cs),
(141,483,o),
(48,393,o),
(48,236,cs),
(48,80,o),
(139,-10,o),
(260,-10,cs),
(381,-10,o),
(475,80,o),
(475,236,cs)
);
},
{
closed = 1;
nodes = (
(407,124,o),
(356,46,o),
(260,46,cs),
(167,46,o),
(115,127,o),
(115,236,cs),
(115,348,o),
(166,427,o),
(260,427,cs),
(355,427,o),
(407,345,o),
(407,236,cs)
);
},
{
closed = 1;
nodes = (
(388,557,l),
(388,645,l),
(305,645,l),
(305,557,l)
);
},
{
closed = 1;
nodes = (
(215,557,l),
(215,645,l),
(133,645,l),
(133,557,l)
);
}
);
width = 523;
}
);
note = odieresis;
unicode = 246;
},
{
glyphname = ograve;
layers = (
{
layerId = m01;
shapes = (
{
closed = 1;
nodes = (
(475,393,o),
(383,483,o),
(260,483,cs),
(141,483,o),
(48,393,o),
(48,236,cs),
(48,80,o),
(139,-10,o),
(260,-10,cs),
(381,-10,o),
(475,80,o),
(475,236,cs)
);
},
{
closed = 1;
nodes = (
(407,124,o),
(356,46,o),
(260,46,cs),
(167,46,o),
(115,127,o),
(115,236,cs),
(115,348,o),
(166,427,o),
(260,427,cs),
(355,427,o),
(407,345,o),
(407,236,cs)
);
},
{
closed = 1;
nodes = (
(288,550,l),
(192,703,l),
(106,684,l),
(242,550,l)
);
}
);
width = 523;
}
);
note = ograve;
unicode = 242;
},
{
glyphname = oslash;
layers = (
{
layerId = m01;
shapes = (
{
closed = 1;
nodes = (
(480,468,l),
(424,481,l),
(391,439,l),
(355,468,o),
(311,483,o),
(260,483,cs),
(141,483,o),
(48,393,o),
(48,236,cs),
(48,168,o),
(66,111,o),
(96,71,c),
(44,5,l),
(100,-7,l),
(132,33,l),
(167,5,o),
(211,-10,o),
(260,-10,cs),
(381,-10,o),
(475,80,o),
(475,236,cs),
(475,305,o),
(457,361,o),
(427,402,c)
);
},
{
closed = 1;
nodes = (
(137,122,l),
(121,153,o),
(112,193,o),
(112,236,cs),
(112,349,o),
(164,429,o),
(260,429,cs),
(299,429,o),
(330,416,o),
(354,393,c)
);
},
{
closed = 1;
nodes = (
(385,351,l),
(401,319,o),
(410,280,o),
(410,236,cs),
(410,123,o),
(357,44,o),
(260,44,cs),
(223,44,o),
(192,57,o),
(168,79,c)
);
}
);
width = 523;
}
);
note = oslash;
unicode = 248;
},
{
glyphname = otilde;
layers = (
{
layerId = m01;
shapes = (
{
closed = 1;
nodes = (
(475,393,o),
(383,483,o),
(260,483,cs),
(141,483,o),
(48,393,o),
(48,236,cs),
(48,80,o),
(139,-10,o),
(260,-10,cs),
(381,-10,o),
(475,80,o),
(475,236,cs)
);
},
{
closed = 1;
nodes = (
(407,124,o),
(356,46,o),
(260,46,cs),
(167,46,o),
(115,127,o),
(115,236,cs),
(115,348,o),
(166,427,o),
(260,427,cs),
(355,427,o),
(407,345,o),
(407,236,cs)
);
},
{
closed = 1;
nodes = (
(364,668,l),
(355,631,o),
(344,616,o),
(328,616,cs),
(312,616,o),
(299,623,o),
(265,641,cs),
(233,658,o),
(217,667,o),
(190,667,cs),
(150,667,o),
(123,631,o),
(113,563,c),
(158,554,l),
(166,592,o),
(178,607,o),
(194,607,cs),
(210,607,o),
(222,599,o),
(257,581,cs),
(289,564,o),
(305,556,o),
(332,556,cs),
(371,556,o),
(399,592,o),
(408,659,c)
);
}
);
width = 523;
}
);
note = otilde;
unicode = 245;
},
{
glyphname = oe;
layers = (
{
layerId = m01;
shapes = (
{
closed = 1;
nodes = (
(801,377,o),
(740,483,o),
(613,483,cs),
(532,483,o),
(472,439,o),
(441,367,c),
(409,441,o),
(346,483,o),
(259,483,cs),
(141,483,o),
(48,393,o),
(48,236,cs),
(48,80,o),
(139,-10,o),
(259,-10,cs),
(344,-10,o),
(407,33,o),
(440,106,c),
(471,33,o),
(535,-10,o),
(620,-10,cs),
(693,-10,o),
(753,18,o),
(800,57,c),
(791,117,l),
(741,75,o),
(687,47,o),
(624,47,cs),
(532,47,o),
(475,116,o),
(473,232,c),
(801,232,l),
(801,237,o),
(801,242,o),
(801,246,cs)
);
},
{
closed = 1;
nodes = (
(476,284,l),
(488,375,o),
(538,430,o),
(612,430,cs),
(687,430,o),
(727,369,o),
(734,284,c)
);
},
{
closed = 1;
nodes = (
(408,124,o),
(355,46,o),
(259,46,cs),
(167,46,o),
(115,127,o),
(115,236,cs),
(115,348,o),
(166,427,o),
(259,427,cs),
(354,427,o),
(408,345,o),
(408,236,cs)
);
}
);
width = 851;
}
);
note = oe;
unicode = 339;
},
{
glyphname = p;
layers = (
{
layerId = m01;
shapes = (
{
closed = 1;
nodes = (
(482,408,o),
(395,483,o),
(292,483,cs),
(223,483,o),
(176,447,o),
(139,405,c),
(128,473,l),
(77,473,l),
(77,-183,l),
(143,-172,l),
(143,17,l),
(177,3,o),
(219,-6,o),
(266,-6,cs),
(381,-6,o),
(482,77,o),
(482,250,cs)
);
},
{
closed = 1;
nodes = (
(415,115,o),
(349,50,o),
(264,50,cs),
(215,50,o),
(180,60,o),
(143,78,c),
(143,339,l),
(186,391,o),
(229,424,o),
(285,424,cs),
(360,424,o),
(415,362,o),
(415,247,cs)
);
}
);
width = 531;
}
);
note = p;
unicode = 112;
},
{
glyphname = thorn;
layers = (
{
layerId = m01;
shapes = (
{
closed = 1;
nodes = (
(482,408,o),
(395,483,o),
(292,483,cs),
(225,483,o),
(179,449,o),
(143,409,c),
(143,718,l),
(77,706,l),
(77,-187,l),
(143,-175,l),
(143,17,l),
(177,3,o),
(219,-6,o),
(266,-6,cs),
(381,-6,o),
(482,77,o),
(482,250,cs)
);
},
{
closed = 1;
nodes = (
(415,115,o),
(350,50,o),
(263,50,cs),
(216,50,o),
(180,60,o),
(143,78,c),
(143,338,l),
(186,391,o),
(228,424,o),
(285,424,cs),
(360,424,o),
(415,362,o),
(415,247,cs)
);
}
);
width = 531;
}
);
note = thorn;
unicode = 254;
},
{
glyphname = q;
layers = (
{
layerId = m01;
shapes = (
{
closed = 1;
nodes = (
(451,-172,l),
(451,449,l),
(398,466,o),
(345,480,o),
(279,480,cs),
(148,480,o),
(49,396,o),
(49,223,cs),
(49,64,o),
(136,-10,o),
(239,-10,cs),
(305,-10,o),
(351,25,o),
(385,62,c),
(385,-183,l)
);
},
{
closed = 1;
nodes = (
(385,132,l),
(344,83,o),
(299,49,o),
(246,49,cs),
(171,49,o),
(116,111,o),
(116,226,cs),
(116,361,o),
(182,423,o),
(276,423,cs),
(324,423,o),
(355,414,o),
(385,403,c)
);
}
);
width = 528;
}
);
note = q;
unicode = 113;
},
{
glyphname = r;
layers = (
{
layerId = m01;
shapes = (
{
closed = 1;
nodes = (
(309,483,l),
(231,481,o),
(176,429,o),
(141,376,c),
(126,473,l),
(77,473,l),
(77,0,l),
(143,0,l),
(143,297,l),
(175,360,o),
(242,416,o),
(320,421,c)
);
}
);
width = 344;
}
);
note = r;
unicode = 114;
},
{
glyphname = s;
layers = (
{
layerId = m01;
shapes = (
{
closed = 1;
nodes = (
(391,212,o),
(337,248,o),
(225,278,cs),
(145,299,o),
(119,319,o),
(119,358,cs),
(119,397,o),
(150,425,o),
(215,425,cs),
(262,425,o),
(310,411,o),
(353,388,c),
(364,451,l),
(322,470,o),
(273,483,o),
(217,483,cs),
(119,483,o),
(56,429,o),
(56,355,cs),
(56,277,o),
(101,243,o),
(206,216,cs),
(300,191,o),
(328,170,o),
(328,123,cs),
(328,75,o),
(287,47,o),
(221,47,cs),
(158,47,o),
(100,70,o),
(56,98,c),
(45,34,l),
(86,11,o),
(152,-9,o),
(215,-9,cs),
(324,-9,o),
(391,42,o),
(391,128,cs)
);
}
);
width = 438;
}
);
note = s;
unicode = 115;
},
{
glyphname = scaron;
layers = (
{
layerId = m01;
shapes = (
{
closed = 1;
nodes = (
(391,212,o),
(337,248,o),
(225,278,cs),
(145,299,o),
(119,319,o),
(119,358,cs),
(119,397,o),
(150,425,o),
(215,425,cs),
(262,425,o),
(310,411,o),
(353,388,c),
(364,451,l),
(322,470,o),
(273,483,o),
(217,483,cs),
(119,483,o),
(56,429,o),
(56,355,cs),
(56,277,o),
(101,243,o),
(206,216,cs),
(300,191,o),
(328,170,o),
(328,123,cs),
(328,75,o),
(287,47,o),
(221,47,cs),
(158,47,o),
(100,70,o),
(56,98,c),
(45,34,l),
(86,11,o),
(152,-9,o),
(215,-9,cs),
(324,-9,o),
(391,42,o),
(391,128,cs)
);
},
{
closed = 1;
nodes = (
(352,695,l),
(310,695,l),
(218,611,l),
(123,698,l),
(87,690,l),
(186,550,l),
(248,550,l)
);
}
);
width = 438;
}
);
note = scaron;
unicode = 353;
},
{
glyphname = germandbls;
layers = (
{
layerId = m01;
shapes = (
{
closed = 1;
nodes = (
(564,248,o),
(486,307,o),
(329,344,c),
(388,415,o),
(427,474,o),
(427,554,cs),
(427,655,o),
(367,715,o),
(266,715,cs),
(166,715,o),
(104,646,o),
(104,537,cs),
(104,473,l),
(32,473,l),
(32,417,l),
(104,417,l),
(104,0,l),
(169,0,l),
(169,543,ls),
(169,614,o),
(207,658,o),
(266,658,cs),
(325,658,o),
(361,617,o),
(361,551,cs),
(361,482,o),
(327,421,o),
(268,351,c),
(276,300,l),
(459,261,o),
(501,205,o),
(501,139,cs),
(501,79,o),
(458,46,o),
(401,46,cs),
(354,46,o),
(305,63,o),
(259,90,c),
(249,28,l),
(292,4,o),
(345,-9,o),
(395,-9,cs),
(495,-9,o),
(564,45,o),
(564,145,cs)
);
}
);
width = 603;
}
);
note = germandbls;
unicode = 223;
},
{
glyphname = t;
layers = (
{
layerId = m01;
shapes = (
{
closed = 1;
nodes = (
(279,55,l),
(268,53,o),
(250,50,o),
(235,50,cs),
(184,50,o),
(165,71,o),
(165,119,cs),
(165,417,l),
(283,417,l),
(274,473,l),
(165,473,l),
(165,648,l),
(100,637,l),
(100,473,l),
(27,473,l),
(27,417,l),
(100,417,l),
(100,108,ls),
(100,21,o),
(149,-8,o),
(223,-8,cs),
(251,-8,o),
(275,-4,o),
(289,0,c)
);
}
);
width = 330;
}
);
note = t;
unicode = 116;
},
{
glyphname = u;
layers = (
{
layerId = m01;
shapes = (
{
closed = 1;
nodes = (
(446,0,l),
(446,473,l),
(380,473,l),
(380,131,l),
(328,80,o),
(277,50,o),
(227,50,cs),
(167,50,o),
(139,86,o),
(139,147,cs),
(139,473,l),
(73,473,l),
(73,135,ls),
(73,45,o),
(119,-10,o),
(214,-10,cs),
(278,-10,o),
(332,24,o),
(384,70,c),
(395,0,l)
);
}
);
width = 523;
}
);
note = u;
unicode = 117;
},
{
glyphname = uacute;
layers = (
{
layerId = m01;
shapes = (
{
closed = 1;
nodes = (
(446,0,l),
(446,473,l),
(380,473,l),
(380,131,l),
(328,80,o),
(277,50,o),
(227,50,cs),
(167,50,o),
(139,86,o),
(139,147,cs),
(139,473,l),
(73,473,l),
(73,135,ls),
(73,45,o),
(119,-10,o),
(214,-10,cs),
(278,-10,o),
(332,24,o),
(384,70,c),
(395,0,l)
);
},
{
closed = 1;
nodes = (
(404,684,l),
(318,703,l),
(221,550,l),
(267,550,l)
);
}
);
width = 523;
}
);
note = uacute;
unicode = 250;
},
{
glyphname = ucircumflex;
layers = (
{
layerId = m01;
shapes = (
{
closed = 1;
nodes = (
(446,0,l),
(446,473,l),
(380,473,l),
(380,131,l),
(328,80,o),
(277,50,o),
(227,50,cs),
(167,50,o),
(139,86,o),
(139,147,cs),
(139,473,l),
(73,473,l),
(73,135,ls),
(73,45,o),
(119,-10,o),
(214,-10,cs),
(278,-10,o),
(332,24,o),
(384,70,c),
(395,0,l)
);
},
{
closed = 1;
nodes = (
(391,555,l),
(292,695,l),
(231,695,l),
(126,550,l),
(168,550,l),
(260,633,l),
(355,547,l)
);
}
);
width = 523;
}
);
note = ucircumflex;
unicode = 251;
},
{
glyphname = udieresis;
layers = (
{
layerId = m01;
shapes = (
{
closed = 1;
nodes = (
(446,0,l),
(446,473,l),
(380,473,l),
(380,131,l),
(328,80,o),
(277,50,o),
(227,50,cs),
(167,50,o),
(139,86,o),
(139,147,cs),
(139,473,l),
(73,473,l),
(73,135,ls),
(73,45,o),
(119,-10,o),
(214,-10,cs),
(278,-10,o),
(332,24,o),
(384,70,c),
(395,0,l)
);
},
{
closed = 1;
nodes = (
(390,557,l),
(390,645,l),
(307,645,l),
(307,557,l)
);
},
{
closed = 1;
nodes = (
(217,557,l),
(217,645,l),
(135,645,l),
(135,557,l)
);
}
);
width = 523;
}
);
note = udieresis;
unicode = 252;
},
{
glyphname = ugrave;
layers = (
{
layerId = m01;
shapes = (
{
closed = 1;
nodes = (
(446,0,l),
(446,473,l),
(380,473,l),
(380,131,l),
(328,80,o),
(277,50,o),
(227,50,cs),
(167,50,o),
(139,86,o),
(139,147,cs),
(139,473,l),
(73,473,l),
(73,135,ls),
(73,45,o),
(119,-10,o),
(214,-10,cs),
(278,-10,o),
(332,24,o),
(384,70,c),
(395,0,l)
);
},
{
closed = 1;
nodes = (
(287,550,l),
(191,703,l),
(105,684,l),
(241,550,l)
);
}
);
width = 523;
}
);
note = ugrave;
unicode = 249;
},
{
glyphname = v;
layers = (
{
layerId = m01;
shapes = (
{
closed = 1;
nodes = (
(440,473,l),
(372,473,l),
(236,77,l),
(96,479,l),
(31,467,l),
(203,-4,l),
(265,-4,l)
);
}
);
width = 470;
}
);
note = v;
unicode = 118;
},
{
glyphname = w;
layers = (
{
layerId = m01;
shapes = (
{
closed = 1;
nodes = (
(698,473,l),
(632,473,l),
(514,88,l),
(396,475,l),
(338,475,l),
(220,88,l),
(98,481,l),
(34,469,l),
(191,-3,l),
(246,-3,l),
(366,385,l),
(485,-3,l),
(541,-3,l)
);
}
);
width = 730;
}
);
note = w;
unicode = 119;
},
{
glyphname = x;
layers = (
{
layerId = m01;
shapes = (
{
closed = 1;
nodes = (
(435,5,l),
(270,245,l),
(426,473,l),
(355,473,l),
(235,294,l),
(110,481,l),
(45,468,l),
(200,243,l),
(35,0,l),
(106,0,l),
(234,195,l),
(370,-7,l)
);
}
);
width = 470;
}
);
note = x;
unicode = 120;
},
{
glyphname = y;
layers = (
{
layerId = m01;
shapes = (
{
closed = 1;
nodes = (
(450,473,l),
(382,473,l),
(242,76,l),
(95,479,l),
(31,467,l),
(210,-3,l),
(188,-60,ls),
(170,-106,o),
(147,-123,o),
(108,-123,cs),
(93,-123,o),
(79,-121,o),
(69,-119,c),
(78,-177,l),
(85,-178,o),
(94,-180,o),
(104,-180,cs),
(174,-180,o),
(216,-151,o),
(250,-59,cs)
);
}
);
width = 480;
}
);
note = y;
unicode = 121;
},
{
glyphname = yacute;
layers = (
{
layerId = m01;
shapes = (
{
closed = 1;
nodes = (
(450,473,l),
(382,473,l),
(242,76,l),
(95,479,l),
(31,467,l),
(210,-3,l),
(188,-60,ls),
(170,-106,o),
(147,-123,o),
(108,-123,cs),
(93,-123,o),
(79,-121,o),
(69,-119,c),
(78,-177,l),
(85,-178,o),
(94,-180,o),
(104,-180,cs),
(174,-180,o),
(216,-151,o),
(250,-59,cs)
);
},
{
closed = 1;
nodes = (
(391,675,l),
(305,694,l),
(208,541,l),
(254,541,l)
);
}
);
width = 480;
}
);
note = yacute;
unicode = 253;
},
{
glyphname = ydieresis;
layers = (
{
layerId = m01;
shapes = (
{
closed = 1;
nodes = (
(450,473,l),
(382,473,l),
(242,76,l),
(95,479,l),
(31,467,l),
(210,-3,l),
(188,-60,ls),
(170,-106,o),
(147,-123,o),
(108,-123,cs),
(93,-123,o),
(79,-121,o),
(69,-119,c),
(78,-177,l),
(85,-178,o),
(94,-180,o),
(104,-180,cs),
(174,-180,o),
(216,-151,o),
(250,-59,cs)
);
},
{
closed = 1;
nodes = (
(368,557,l),
(368,645,l),
(285,645,l),
(285,557,l)
);
},
{
closed = 1;
nodes = (
(195,557,l),
(195,645,l),
(113,645,l),
(113,557,l)
);
}
);
width = 480;
}
);
note = ydieresis;
unicode = 255;
},
{
glyphname = z;
layers = (
{
layerId = m01;
shapes = (
{
closed = 1;
nodes = (
(407,0,l),
(398,55,l),
(117,55,l),
(399,422,l),
(399,473,l),
(56,473,l),
(65,418,l),
(323,418,l),
(41,51,l),
(41,0,l)
);
}
);
width = 449;
}
);
note = z;
unicode = 122;
},
{
glyphname = zcaron;
layers = (
{
layerId = m01;
shapes = (
{
closed = 1;
nodes = (
(407,0,l),
(398,55,l),
(117,55,l),
(399,422,l),
(399,473,l),
(56,473,l),
(65,418,l),
(323,418,l),
(41,51,l),
(41,0,l)
);
},
{
closed = 1;
nodes = (
(361,695,l),
(319,695,l),
(227,611,l),
(132,698,l),
(96,690,l),
(195,550,l),
(257,550,l)
);
}
);
width = 449;
}
);
note = zcaron;
unicode = 382;
},
{
glyphname = fi;
layers = (
{
layerId = m01;
shapes = (
{
closed = 1;
nodes = (
(462,660,o),
(441,682,o),
(415,682,cs),
(390,682,o),
(369,660,o),
(369,635,cs),
(369,610,o),
(390,588,o),
(415,588,cs),
(441,588,o),
(462,610,o),
(462,635,cs)
);
},
{
closed = 1;
nodes = (
(271,713,l),
(262,714,o),
(254,715,o),
(237,715,cs),
(156,715,o),
(104,675,o),
(104,588,cs),
(104,473,l),
(32,473,l),
(32,417,l),
(104,417,l),
(104,0,l),
(169,0,l),
(169,417,l),
(275,417,l),
(266,473,l),
(169,473,l),
(169,583,ls),
(169,635,o),
(196,655,o),
(241,655,cs),
(259,655,o),
(272,654,o),
(281,652,c)
);
},
{
closed = 1;
nodes = (
(448,0,l),
(448,473,l),
(382,473,l),
(382,0,l)
);
}
);
width = 532;
}
);
note = fi;
unicode = 64257;
},
{
glyphname = fl;
layers = (
{
layerId = m01;
shapes = (
{
closed = 1;
nodes = (
(448,0,l),
(448,718,l),
(382,706,l),
(382,0,l)
);
},
{
closed = 1;
nodes = (
(271,713,l),
(262,714,o),
(254,715,o),
(237,715,cs),
(156,715,o),
(104,675,o),
(104,588,cs),
(104,473,l),
(32,473,l),
(32,417,l),
(104,417,l),
(104,0,l),
(169,0,l),
(169,417,l),
(275,417,l),
(266,473,l),
(169,473,l),
(169,583,ls),
(169,635,o),
(196,655,o),
(241,655,cs),
(259,655,o),
(272,654,o),
(281,652,c)
);
}
);
width = 532;
}
);
note = fl;
unicode = 64258;
},
{
glyphname = ordfeminine;
layers = (
{
layerId = m01;
shapes = (
{
closed = 1;
nodes = (
(313,359,l),
(313,582,ls),
(313,649,o),
(275,680,o),
(204,680,cs),
(160,680,o),
(125,670,o),
(88,655,c),
(95,609,l),
(132,626,o),
(165,636,o),
(200,636,cs),
(240,636,o),
(263,619,o),
(263,580,cs),
(263,563,l),
(129,551,o),
(66,513,o),
(66,440,cs),
(66,386,o),
(104,353,o),
(161,353,cs),
(203,353,o),
(239,373,o),
(267,397,c),
(273,359,l)
);
},
{
closed = 1;
nodes = (
(321,230,l),
(314,277,l),
(69,277,l),
(69,230,l)
);
},
{
closed = 1;
nodes = (
(263,439,l),
(233,413,o),
(201,396,o),
(169,396,cs),
(136,396,o),
(116,414,o),
(116,443,cs),
(116,482,o),
(148,513,o),
(263,522,c)
);
}
);
width = 393;
}
);
note = ordfeminine;
unicode = 170;
},
{
glyphname = ordmasculine;
layers = (
{
layerId = m01;
shapes = (
{
closed = 1;
nodes = (
(339,613,o),
(285,680,o),
(197,680,cs),
(111,680,o),
(55,613,o),
(55,517,cs),
(55,420,o),
(111,353,o),
(197,353,cs),
(285,353,o),
(339,420,o),
(339,517,cs)
);
},
{
closed = 1;
nodes = (
(331,230,l),
(323,277,l),
(65,277,l),
(65,230,l)
);
},
{
closed = 1;
nodes = (
(286,451,o),
(258,398,o),
(197,398,cs),
(137,398,o),
(108,452,o),
(108,517,cs),
(108,582,o),
(137,635,o),
(197,635,cs),
(258,635,o),
(286,581,o),
(286,517,cs)
);
}
);
width = 395;
}
);
note = ordmasculine;
unicode = 186;
},
{
glyphname = Delta;
layers = (
{
layerId = m01;
shapes = (
{
closed = 1;
nodes = (
(25,-200,l),
(475,-200,l),
(475,800,l),
(25,800,l)
);
}
);
width = 500;
}
);
note = Delta;
unicode = 916;
},
{
glyphname = Omega;
layers = (
{
layerId = m01;
shapes = (
{
closed = 1;
nodes = (
(570,713,l),
(561,714,o),
(552,715,o),
(536,715,cs),
(454,715,o),
(402,675,o),
(402,588,cs),
(402,473,l),
(330,473,l),
(330,417,l),
(402,417,l),
(402,0,l),
(467,0,l),
(467,417,l),
(573,417,l),
(565,473,l),
(467,473,l),
(467,583,ls),
(467,635,o),
(494,655,o),
(539,655,cs),
(557,655,o),
(570,654,o),
(579,652,c)
);
},
{
closed = 1;
nodes = (
(271,713,l),
(262,714,o),
(254,715,o),
(237,715,cs),
(156,715,o),
(104,675,o),
(104,588,cs),
(104,473,l),
(32,473,l),
(32,417,l),
(104,417,l),
(104,0,l),
(169,0,l),
(169,417,l),
(275,417,l),
(266,473,l),
(169,473,l),
(169,583,ls),
(169,635,o),
(196,655,o),
(241,655,cs),
(259,655,o),
(272,654,o),
(281,652,c)
);
}
);
width = 596;
}
);
note = Omega;
unicode = 937;
},
{
glyphname = pi;
layers = (
{
layerId = m01;
shapes = (
{
closed = 1;
nodes = (
(747,556,o),
(609,703,o),
(402,703,cs),
(196,703,o),
(58,555,o),
(58,345,cs),
(58,134,o),
(196,-13,o),
(403,-13,cs),
(610,-13,o),
(747,135,o),
(747,345,cs)
);
},
{
closed = 1;
nodes = (
(713,145,o),
(588,16,o),
(404,16,cs),
(220,16,o),
(93,145,o),
(93,345,cs),
(93,545,o),
(218,674,o),
(402,674,cs),
(585,674,o),
(713,545,o),
(713,345,cs)
);
},
{
closed = 1;
nodes = (
(543,499,o),
(488,543,o),
(407,543,cs),
(301,543,l),
(301,150,l),
(354,150,l),
(354,303,l),
(400,303,ls),
(483,303,o),
(543,345,o),
(543,425,cs)
);
},
{
closed = 1;
nodes = (
(490,375,o),
(456,350,o),
(402,350,cs),
(354,350,l),
(354,496,l),
(405,496,ls),
(457,496,o),
(490,470,o),
(490,423,cs)
);
}
);
width = 806;
}
);
note = pi;
unicode = 960;
},
{
glyphname = zero;
layers = (
{
layerId = m01;
shapes = (
{
closed = 1;
nodes = (
(556,553,o),
(461,689,o),
(308,689,cs),
(156,689,o),
(60,552,o),
(60,337,cs),
(60,123,o),
(155,-13,o),
(308,-13,cs),
(460,-13,o),
(556,124,o),
(556,339,cs)
);
},
{
closed = 1;
nodes = (
(488,161,o),
(424,46,o),
(308,46,cs),
(192,46,o),
(128,161,o),
(128,338,cs),
(128,515,o),
(192,630,o),
(308,630,cs),
(424,630,o),
(488,515,o),
(488,338,cs)
);
}
);
width = 616;
}
);
note = zero;
unicode = 48;
},
{
glyphname = one;
layers = (
{
layerId = m01;
shapes = (
{
closed = 1;
nodes = (
(249,0,l),
(249,679,l),
(195,679,l),
(29,603,l),
(38,549,l),
(183,607,l),
(183,0,l)
);
}
);
width = 355;
}
);
note = one;
unicode = 49;
},
{
glyphname = two;
layers = (
{
layerId = m01;
shapes = (
{
closed = 1;
nodes = (
(476,0,l),
(467,59,l),
(138,59,l),
(347,277,ls),
(430,364,o),
(465,422,o),
(465,505,cs),
(465,616,o),
(391,689,o),
(266,689,cs),
(183,689,o),
(118,656,o),
(68,614,c),
(78,548,l),
(131,594,o),
(192,629,o),
(262,629,cs),
(346,629,o),
(396,582,o),
(396,501,cs),
(396,438,o),
(371,391,o),
(299,314,cs),
(50,49,l),
(50,0,l)
);
}
);
width = 535;
}
);
note = two;
unicode = 50;
},
{
glyphname = three;
layers = (
{
layerId = m01;
shapes = (
{
closed = 1;
nodes = (
(464,278,o),
(409,333,o),
(322,358,c),
(393,382,o),
(451,430,o),
(451,518,cs),
(451,610,o),
(386,689,o),
(249,689,cs),
(168,689,o),
(108,664,o),
(56,627,c),
(65,564,l),
(116,603,o),
(175,629,o),
(246,629,cs),
(336,629,o),
(382,581,o),
(382,515,cs),
(382,436,o),
(322,386,o),
(206,386,cs),
(160,386,l),
(169,327,l),
(199,327,ls),
(335,327,o),
(395,270,o),
(395,182,cs),
(395,100,o),
(334,47,o),
(238,47,cs),
(166,47,o),
(114,66,o),
(56,106,c),
(45,40,l),
(93,9,o),
(161,-13,o),
(234,-13,cs),
(370,-13,o),
(464,68,o),
(464,183,cs)
);
}
);
width = 523;
}
);
note = three;
unicode = 51;
},
{
glyphname = four;
layers = (
{
layerId = m01;
shapes = (
{
closed = 1;
nodes = (
(560,160,l),
(560,215,l),
(449,215,l),
(449,679,l),
(368,679,l),
(41,207,l),
(41,160,l),
(387,160,l),
(387,0,l),
(449,0,l),
(449,160,l)
);
},
{
closed = 1;
nodes = (
(387,215,l),
(114,215,l),
(387,606,l)
);
}
);
width = 593;
}
);
note = four;
unicode = 52;
},
{
glyphname = five;
layers = (
{
layerId = m01;
shapes = (
{
closed = 1;
nodes = (
(480,331,o),
(395,409,o),
(258,409,cs),
(209,409,o),
(174,400,o),
(145,390,c),
(161,617,l),
(455,617,l),
(445,676,l),
(105,676,l),
(81,336,l),
(126,325,l),
(161,340,o),
(198,350,o),
(252,350,cs),
(356,350,o),
(413,294,o),
(413,205,cs),
(413,99,o),
(332,46,o),
(238,46,cs),
(167,46,o),
(112,69,o),
(61,101,c),
(51,37,l),
(98,8,o),
(158,-12,o),
(235,-12,cs),
(370,-12,o),
(480,69,o),
(480,208,cs)
);
}
);
width = 534;
}
);
note = five;
unicode = 53;
},
{
glyphname = six;
layers = (
{
layerId = m01;
shapes = (
{
closed = 1;
nodes = (
(155,498,o),
(263,585,o),
(422,629,c),
(413,690,l),
(202,631,o),
(61,503,o),
(61,274,cs),
(61,95,o),
(161,-13,o),
(299,-13,cs),
(425,-13,o),
(520,75,o),
(520,205,cs),
(520,329,o),
(439,407,o),
(314,407,cs),
(246,407,o),
(186,384,o),
(131,346,c)
);
},
{
closed = 1;
nodes = (
(127,281,l),
(179,322,o),
(238,349,o),
(303,349,cs),
(403,349,o),
(452,289,o),
(452,202,cs),
(452,107,o),
(392,45,o),
(300,45,cs),
(197,45,o),
(127,140,o),
(127,277,cs)
);
}
);
width = 568;
}
);
note = six;
unicode = 54;
},
{
glyphname = seven;
layers = (
{
layerId = m01;
shapes = (
{
closed = 1;
nodes = (
(478,626,l),
(478,676,l),
(46,676,l),
(55,616,l),
(403,616,l),
(134,8,l),
(198,-7,l)
);
}
);
width = 532;
}
);
note = seven;
unicode = 55;
},
{
glyphname = eight;
layers = (
{
layerId = m01;
shapes = (
{
closed = 1;
nodes = (
(189,421,o),
(150,453,o),
(150,520,cs),
(150,578,o),
(197,632,o),
(288,632,cs),
(373,632,o),
(426,585,o),
(426,520,cs),
(426,462,o),
(382,411,o),
(312,376,c)
);
},
{
closed = 1;
nodes = (
(403,283,o),
(447,249,o),
(447,173,cs),
(447,94,o),
(376,44,o),
(288,44,cs),
(192,44,o),
(124,94,o),
(124,174,cs),
(124,243,o),
(178,298,o),
(261,334,c)
);
},
{
closed = 1;
nodes = (
(114,314,o),
(57,253,o),
(57,170,cs),
(57,69,o),
(143,-13,o),
(286,-13,cs),
(419,-13,o),
(514,65,o),
(514,172,cs),
(514,265,o),
(460,315,o),
(371,354,c),
(438,392,o),
(492,445,o),
(492,523,cs),
(492,616,o),
(413,689,o),
(290,689,cs),
(168,689,o),
(83,615,o),
(83,519,cs),
(83,437,o),
(132,390,o),
(202,357,c)
);
}
);
width = 571;
}
);
note = eight;
unicode = 56;
},
{
glyphname = nine;
layers = (
{
layerId = m01;
shapes = (
{
closed = 1;
nodes = (
(408,171,o),
(297,83,o),
(136,47,c),
(146,-14,l),
(363,39,o),
(507,174,o),
(507,402,cs),
(507,581,o),
(410,689,o),
(270,689,cs),
(138,689,o),
(49,594,o),
(49,468,cs),
(49,340,o),
(130,260,o),
(255,260,cs),
(322,260,o),
(381,282,o),
(435,320,c)
);
},
{
closed = 1;
nodes = (
(390,344,o),
(329,319,o),
(266,319,cs),
(167,319,o),
(116,380,o),
(116,471,cs),
(116,567,o),
(175,631,o),
(269,631,cs),
(371,631,o),
(442,539,o),
(442,399,cs),
(442,394,o),
(442,390,o),
(442,385,c)
);
}
);
width = 568;
}
);
note = nine;
unicode = 57;
},
{
glyphname = fraction;
layers = (
{
layerId = m01;
shapes = (
{
closed = 1;
nodes = (
(520,770,l),
(464,784,l),
(-76,-94,l),
(-20,-108,l)
);
}
);
width = 439;
}
);
note = fraction;
unicode = 8260;
},
{
glyphname = onehalf;
layers = (
{
layerId = m01;
shapes = (
{
closed = 1;
nodes = (
(25,-200,l),
(475,-200,l),
(475,800,l),
(25,800,l)
);
}
);
width = 500;
}
);
note = onehalf;
unicode = 189;
},
{
glyphname = onequarter;
layers = (
{
layerId = m01;
shapes = (
{
closed = 1;
nodes = (
(25,-200,l),
(475,-200,l),
(475,800,l),
(25,800,l)
);
}
);
width = 500;
}
);
note = onequarter;
unicode = 188;
},
{
glyphname = threequarters;
layers = (
{
layerId = m01;
shapes = (
{
closed = 1;
nodes = (
(25,-200,l),
(475,-200,l),
(475,800,l),
(25,800,l)
);
}
);
width = 500;
}
);
note = threequarters;
unicode = 190;
},
{
glyphname = onesuperior;
layers = (
{
layerId = m01;
shapes = (
{
closed = 1;
nodes = (
(25,-200,l),
(475,-200,l),
(475,800,l),
(25,800,l)
);
}
);
width = 500;
}
);
note = onesuperior;
unicode = 185;
},
{
glyphname = twosuperior;
layers = (
{
layerId = m01;
shapes = (
{
closed = 1;
nodes = (
(25,-200,l),
(475,-200,l),
(475,800,l),
(25,800,l)
);
}
);
width = 500;
}
);
note = twosuperior;
unicode = 178;
},
{
glyphname = threesuperior;
layers = (
{
layerId = m01;
shapes = (
{
closed = 1;
nodes = (
(25,-200,l),
(475,-200,l),
(475,800,l),
(25,800,l)
);
}
);
width = 500;
}
);
note = threesuperior;
unicode = 179;
},
{
glyphname = period;
layers = (
{
layerId = m01;
shapes = (
{
closed = 1;
nodes = (
(148,0,l),
(148,98,l),
(71,98,l),
(71,0,l)
);
}
);
width = 219;
}
);
note = period;
unicode = 46;
},
{
glyphname = comma;
layers = (
{
layerId = m01;
shapes = (
{
closed = 1;
nodes = (
(164,98,l),
(84,98,l),
(33,-124,l),
(68,-133,l)
);
}
);
width = 219;
}
);
note = comma;
unicode = 44;
},
{
glyphname = colon;
layers = (
{
layerId = m01;
shapes = (
{
closed = 1;
nodes = (
(153,376,l),
(153,473,l),
(75,473,l),
(75,376,l)
);
},
{
closed = 1;
nodes = (
(153,0,l),
(153,98,l),
(75,98,l),
(75,0,l)
);
}
);
width = 227;
}
);
note = colon;
unicode = 58;
},
{
glyphname = semicolon;
layers = (
{
layerId = m01;
shapes = (
{
closed = 1;
nodes = (
(159,376,l),
(159,473,l),
(81,473,l),
(81,376,l)
);
},
{
closed = 1;
nodes = (
(159,98,l),
(79,98,l),
(27,-124,l),
(63,-133,l)
);
}
);
width = 227;
}
);
note = semicolon;
unicode = 59;
},
{
glyphname = ellipsis;
layers = (
{
layerId = m01;
shapes = (
{
closed = 1;
nodes = (
(617,0,l),
(617,98,l),
(538,98,l),
(538,0,l)
);
},
{
closed = 1;
nodes = (
(385,0,l),
(385,98,l),
(307,98,l),
(307,0,l)
);
},
{
closed = 1;
nodes = (
(155,0,l),
(155,98,l),
(77,98,l),
(77,0,l)
);
}
);
width = 693;
}
);
note = ellipsis;
unicode = 8230;
},
{
glyphname = exclam;
layers = (
{
layerId = m01;
shapes = (
{
closed = 1;
nodes = (
(174,690,l),
(94,690,l),
(114,191,l),
(154,200,l)
);
},
{
closed = 1;
nodes = (
(173,0,l),
(173,98,l),
(95,98,l),
(95,0,l)
);
}
);
width = 268;
}
);
note = exclam;
unicode = 33;
},
{
glyphname = exclamdown;
layers = (
{
layerId = m01;
shapes = (
{
closed = 1;
nodes = (
(173,592,l),
(173,690,l),
(95,690,l),
(95,592,l)
);
},
{
closed = 1;
nodes = (
(174,0,l),
(154,499,l),
(114,490,l),
(94,0,l)
);
}
);
width = 268;
}
);
note = exclamdown;
unicode = 161;
},
{
glyphname = question;
layers = (
{
layerId = m01;
shapes = (
{
closed = 1;
nodes = (
(442,638,o),
(360,703,o),
(245,703,cs),
(168,703,o),
(100,675,o),
(47,635,c),
(56,568,l),
(111,612,o),
(172,641,o),
(242,641,cs),
(320,641,o),
(372,600,o),
(372,530,cs),
(372,464,o),
(335,423,o),
(222,368,cs),
(194,356,l),
(206,190,l),
(250,200,l),
(259,321,l),
(372,379,o),
(442,429,o),
(442,533,cs)
);
},
{
closed = 1;
nodes = (
(267,0,l),
(267,98,l),
(189,98,l),
(189,0,l)
);
}
);
width = 498;
}
);
note = question;
unicode = 63;
},
{
glyphname = questiondown;
layers = (
{
layerId = m01;
shapes = (
{
closed = 1;
nodes = (
(309,592,l),
(309,690,l),
(231,690,l),
(231,592,l)
);
},
{
closed = 1;
nodes = (
(442,122,l),
(387,78,o),
(326,49,o),
(256,49,cs),
(178,49,o),
(126,90,o),
(126,160,cs),
(126,226,o),
(163,267,o),
(276,322,cs),
(304,334,l),
(292,500,l),
(248,490,l),
(239,369,l),
(126,311,o),
(57,261,o),
(57,157,cs),
(57,52,o),
(138,-13,o),
(253,-13,cs),
(330,-13,o),
(398,15,o),
(451,55,c)
);
}
);
width = 498;
}
);
note = questiondown;
unicode = 191;
},
{
glyphname = periodcentered;
layers = (
{
layerId = m01;
shapes = (
{
closed = 1;
nodes = (
(146,234,l),
(146,332,l),
(68,332,l),
(68,234,l)
);
}
);
width = 214;
}
);
note = periodcentered;
unicode = 183;
},
{
glyphname = bullet;
layers = (
{
layerId = m01;
shapes = (
{
closed = 1;
nodes = (
(325,348,l),
(309,457,l),
(209,473,l),
(109,457,l),
(92,348,l),
(109,239,l),
(209,222,l),
(309,239,l)
);
}
);
width = 417;
}
);
note = bullet;
unicode = 8226;
},
{
glyphname = asterisk;
layers = (
{
layerId = m01;
shapes = (
{
closed = 1;
nodes = (
(357,576,l),
(350,596,l),
(226,570,l),
(214,696,l),
(191,696,l),
(179,570,l),
(55,596,l),
(49,576,l),
(164,525,l),
(100,413,l),
(118,401,l),
(203,498,l),
(288,401,l),
(305,413,l),
(241,525,l)
);
}
);
width = 406;
}
);
note = asterisk;
unicode = 42;
},
{
glyphname = numbersign;
layers = (
{
layerId = m01;
shapes = (
{
closed = 1;
nodes = (
(206,180,l),
(391,180,l),
(363,-2,l),
(416,-2,l),
(444,180,l),
(583,180,l),
(574,236,l),
(453,236,l),
(485,440,l),
(604,440,l),
(604,496,l),
(494,496,l),
(522,672,l),
(471,683,l),
(441,496,l),
(256,496,l),
(285,678,l),
(232,678,l),
(203,496,l),
(64,496,l),
(73,440,l),
(194,440,l),
(162,236,l),
(44,236,l),
(44,180,l),
(153,180,l),
(125,4,l),
(177,-7,l)
);
},
{
closed = 1;
nodes = (
(247,440,l),
(432,440,l),
(400,236,l),
(215,236,l)
);
}
);
width = 648;
}
);
note = numbersign;
unicode = 35;
},
{
glyphname = slash;
layers = (
{
layerId = m01;
shapes = (
{
closed = 1;
nodes = (
(496,684,l),
(437,697,l),
(-35,-112,l),
(24,-124,l)
);
}
);
width = 517;
}
);
note = slash;
unicode = 47;
},
{
glyphname = backslash;
layers = (
{
layerId = m01;
shapes = (
{
closed = 1;
nodes = (
(552,-112,l),
(80,696,l),
(21,684,l),
(493,-125,l)
);
}
);
width = 517;
}
);
note = backslash;
unicode = 92;
},
{
glyphname = hyphen;
layers = (
{
layerId = m01;
shapes = (
{
closed = 1;
nodes = (
(303,250,l),
(303,316,l),
(61,316,l),
(61,250,l)
);
}
);
width = 364;
}
);
note = hyphen;
unicode = 45;
},
{
glyphname = endash;
layers = (
{
layerId = m01;
shapes = (
{
closed = 1;
nodes = (
(397,251,l),
(397,315,l),
(58,315,l),
(58,251,l)
);
}
);
width = 456;
}
);
note = endash;
unicode = 8211;
},
{
glyphname = emdash;
layers = (
{
layerId = m01;
shapes = (
{
closed = 1;
nodes = (
(853,252,l),
(853,315,l),
(58,315,l),
(58,252,l)
);
}
);
width = 912;
}
);
note = emdash;
unicode = 8212;
},
{
glyphname = underscore;
layers = (
{
layerId = m01;
shapes = (
{
closed = 1;
nodes = (
(465,-105,l),
(465,-51,l),
(1,-51,l),
(1,-105,l)
);
}
);
width = 466;
}
);
note = underscore;
unicode = 95;
},
{
glyphname = parenleft;
layers = (
{
layerId = m01;
shapes = (
{
closed = 1;
nodes = (
(349,-82,l),
(209,41,o),
(140,161,o),
(140,309,cs),
(140,463,o),
(203,573,o),
(334,665,c),
(323,727,l),
(159,622,o),
(70,487,o),
(70,311,cs),
(70,140,o),
(152,19,o),
(283,-96,c)
);
}
);
width = 398;
}
);
note = parenleft;
unicode = 40;
},
{
glyphname = parenright;
layers = (
{
layerId = m01;
shapes = (
{
closed = 1;
nodes = (
(328,487,o),
(246,608,o),
(115,723,c),
(49,709,l),
(189,585,o),
(259,466,o),
(259,318,cs),
(259,163,o),
(195,54,o),
(64,-38,c),
(75,-100,l),
(239,5,o),
(328,139,o),
(328,316,cs)
);
}
);
width = 398;
}
);
note = parenright;
unicode = 41;
},
{
glyphname = braceleft;
layers = (
{
layerId = m01;
shapes = (
{
closed = 1;
nodes = (
(414,-105,l),
(405,-53,l),
(319,-53,ls),
(260,-53,o),
(238,-24,o),
(238,24,cs),
(238,65,o),
(251,119,o),
(251,163,cs),
(251,246,o),
(210,277,o),
(150,291,c),
(150,293,l),
(210,307,o),
(251,339,o),
(251,421,cs),
(251,465,o),
(238,518,o),
(238,559,cs),
(238,608,o),
(263,638,o),
(320,638,cs),
(409,638,l),
(409,690,l),
(318,690,ls),
(220,690,o),
(175,643,o),
(175,558,cs),
(175,512,o),
(187,468,o),
(187,420,cs),
(187,342,o),
(143,318,o),
(82,318,cs),
(44,318,l),
(52,267,l),
(81,267,ls),
(142,267,o),
(187,242,o),
(187,164,cs),
(187,115,o),
(175,71,o),
(175,25,cs),
(175,-59,o),
(220,-105,o),
(318,-105,cs)
);
}
);
width = 469;
}
);
note = braceleft;
unicode = 123;
},
{
glyphname = braceright;
layers = (
{
layerId = m01;
shapes = (
{
closed = 1;
nodes = (
(425,268,l),
(418,318,l),
(388,318,ls),
(327,318,o),
(282,343,o),
(282,421,cs),
(282,469,o),
(295,514,o),
(295,560,cs),
(295,645,o),
(250,690,o),
(152,690,cs),
(55,690,l),
(64,638,l),
(150,638,ls),
(208,638,o),
(232,610,o),
(232,561,cs),
(232,520,o),
(218,466,o),
(218,422,cs),
(218,339,o),
(259,307,o),
(320,293,c),
(320,291,l),
(259,278,o),
(218,246,o),
(218,163,cs),
(218,120,o),
(232,66,o),
(232,25,cs),
(232,-24,o),
(207,-53,o),
(149,-53,cs),
(60,-53,l),
(60,-105,l),
(152,-105,ls),
(250,-105,o),
(295,-58,o),
(295,26,cs),
(295,73,o),
(282,116,o),
(282,164,cs),
(282,243,o),
(326,268,o),
(387,268,cs)
);
}
);
width = 469;
}
);
note = braceright;
unicode = 125;
},
{
glyphname = bracketleft;
layers = (
{
layerId = m01;
shapes = (
{
closed = 1;
nodes = (
(351,-105,l),
(343,-53,l),
(161,-53,l),
(161,638,l),
(347,638,l),
(347,690,l),
(97,690,l),
(97,-105,l)
);
}
);
width = 407;
}
);
note = bracketleft;
unicode = 91;
},
{
glyphname = bracketright;
layers = (
{
layerId = m01;
shapes = (
{
closed = 1;
nodes = (
(309,-105,l),
(309,690,l),
(55,690,l),
(64,638,l),
(246,638,l),
(246,-53,l),
(60,-53,l),
(60,-105,l)
);
}
);
width = 407;
}
);
note = bracketright;
unicode = 93;
},
{
glyphname = quotesinglbase;
layers = (
{
layerId = m01;
shapes = (
{
closed = 1;
nodes = (
(160,98,l),
(81,98,l),
(46,-116,l),
(83,-124,l)
);
}
);
width = 219;
}
);
note = quotesinglbase;
unicode = 8218;
},
{
glyphname = quotedblbase;
layers = (
{
layerId = m01;
shapes = (
{
closed = 1;
nodes = (
(164,98,l),
(84,98,l),
(50,-116,l),
(87,-124,l)
);
},
{
closed = 1;
nodes = (
(333,98,l),
(253,98,l),
(219,-116,l),
(256,-124,l)
);
}
);
width = 387;
}
);
note = quotedblbase;
unicode = 8222;
},
{
glyphname = quotedblleft;
layers = (
{
layerId = m01;
shapes = (
{
closed = 1;
nodes = (
(166,687,l),
(129,696,l),
(51,473,l),
(131,473,l)
);
},
{
closed = 1;
nodes = (
(334,687,l),
(298,696,l),
(220,473,l),
(300,473,l)
);
}
);
width = 388;
}
);
note = quotedblleft;
unicode = 8220;
},
{
glyphname = quotedblright;
layers = (
{
layerId = m01;
shapes = (
{
closed = 1;
nodes = (
(167,690,l),
(88,690,l),
(53,476,l),
(90,467,l)
);
},
{
closed = 1;
nodes = (
(336,690,l),
(256,690,l),
(222,476,l),
(259,467,l)
);
}
);
width = 388;
}
);
note = quotedblright;
unicode = 8221;
},
{
glyphname = quoteleft;
layers = (
{
layerId = m01;
shapes = (
{
closed = 1;
nodes = (
(166,687,l),
(129,696,l),
(51,473,l),
(131,473,l)
);
}
);
width = 219;
}
);
note = quoteleft;
unicode = 8216;
},
{
glyphname = quoteright;
layers = (
{
layerId = m01;
shapes = (
{
closed = 1;
nodes = (
(167,690,l),
(88,690,l),
(53,476,l),
(90,467,l)
);
}
);
width = 219;
}
);
note = quoteright;
unicode = 8217;
},
{
glyphname = guillemetleft;
layers = (
{
layerId = m01;
shapes = (
{
closed = 1;
nodes = (
(460,473,l),
(404,473,l),
(241,237,l),
(406,-5,l),
(457,7,l),
(316,237,l)
);
},
{
closed = 1;
nodes = (
(259,473,l),
(202,473,l),
(39,237,l),
(204,-5,l),
(255,7,l),
(115,237,l)
);
}
);
width = 514;
}
);
note = guillemotleft;
unicode = 171;
},
{
glyphname = guillemetright;
layers = (
{
layerId = m01;
shapes = (
{
closed = 1;
nodes = (
(474,236,l),
(310,478,l),
(258,467,l),
(399,236,l),
(255,0,l),
(312,0,l)
);
},
{
closed = 1;
nodes = (
(273,236,l),
(108,478,l),
(57,467,l),
(198,236,l),
(53,0,l),
(110,0,l)
);
}
);
width = 514;
}
);
note = guillemotright;
unicode = 187;
},
{
glyphname = guilsinglleft;
layers = (
{
layerId = m01;
shapes = (
{
closed = 1;
nodes = (
(259,473,l),
(202,473,l),
(39,237,l),
(204,-5,l),
(255,7,l),
(115,237,l)
);
}
);
width = 313;
}
);
note = guilsinglleft;
unicode = 8249;
},
{
glyphname = guilsinglright;
layers = (
{
layerId = m01;
shapes = (
{
closed = 1;
nodes = (
(273,236,l),
(108,478,l),
(57,467,l),
(198,236,l),
(53,0,l),
(110,0,l)
);
}
);
width = 313;
}
);
note = guilsinglright;
unicode = 8250;
},
{
glyphname = quotedbl;
layers = (
{
layerId = m01;
shapes = (
{
closed = 1;
nodes = (
(317,676,l),
(237,676,l),
(259,489,l),
(296,481,l)
);
},
{
closed = 1;
nodes = (
(149,676,l),
(70,676,l),
(90,489,l),
(128,481,l)
);
}
);
width = 387;
}
);
note = quotedbl;
unicode = 34;
},
{
glyphname = quotesingle;
layers = (
{
layerId = m01;
shapes = (
{
closed = 1;
nodes = (
(149,676,l),
(70,676,l),
(90,489,l),
(128,481,l)
);
}
);
width = 219;
}
);
note = quotesingle;
unicode = 39;
},
{
glyphname = florin;
layers = (
{
layerId = m01;
shapes = (
{
closed = 1;
nodes = (
(76,453,l),
(67,397,l),
(136,397,l),
(73,0,l),
(137,0,l),
(201,397,l),
(311,397,l),
(311,453,l),
(209,453,ls),
(210,453,o),
(224,542,o),
(224,542,c),
(234,600,o),
(256,625,o),
(308,625,cs),
(323,625,o),
(340,623,o),
(352,621,c),
(352,681,l),
(342,682,o),
(326,684,o),
(309,684,cs),
(220,684,o),
(175,644,o),
(160,551,c),
(160,551,o),
(145,453,o),
(144,453,cs)
);
}
);
width = 381;
}
);
note = florin;
unicode = 402;
},
{
glyphname = apple;
layers = (
{
layerId = m01;
shapes = (
{
closed = 1;
nodes = (
(644,-200,l),
(644,721,l),
(543,721,l),
(514,800,l),
(180,800,l),
(150,721,l),
(50,721,l),
(50,167,l),
(68,167,o),
(82,152,o),
(82,135,cs),
(82,117,o),
(68,103,o),
(50,103,c),
(50,-200,l),
(257,-200,l),
(265,-186,l),
(428,-186,l),
(436,-200,l)
);
},
{
closed = 1;
nodes = (
(400,563,l),
(458,563,l),
(458,549,l),
(415,549,l),
(415,483,l),
(453,483,l),
(453,469,l),
(415,469,l),
(415,391,l),
(400,391,l)
);
},
{
closed = 1;
nodes = (
(184,563,l),
(199,563,l),
(199,484,l),
(246,484,l),
(246,563,l),
(261,563,l),
(261,391,l),
(246,391,l),
(246,470,l),
(199,470,l),
(199,391,l),
(184,391,l)
);
},
{
closed = 1;
nodes = (
(460,410,l),
(465,407,o),
(475,404,o),
(480,404,cs),
(491,404,o),
(496,410,o),
(496,426,cs),
(496,563,l),
(512,563,l),
(512,426,ls),
(512,401,o),
(501,390,o),
(481,390,cs),
(475,390,o),
(464,392,o),
(460,394,c)
);
},
{
closed = 1;
nodes = (
(523,323,l),
(531,323,l),
(531,299,l),
(552,323,l),
(562,323,l),
(544,303,l),
(563,277,l),
(554,277,l),
(538,297,l),
(531,290,l),
(531,277,l),
(523,277,l)
);
},
{
closed = 1;
nodes = (
(488,292,l),
(476,292,l),
(476,277,l),
(468,277,l),
(468,323,l),
(489,323,ls),
(499,323,o),
(505,315,o),
(505,309,cs),
(505,302,o),
(501,296,o),
(495,294,c),
(507,277,l),
(498,277,l)
);
},
{
closed = 1;
nodes = (
(412,276,o),
(403,287,o),
(403,300,cs),
(403,312,o),
(412,324,o),
(426,324,cs),
(440,324,o),
(450,312,o),
(450,300,cs),
(450,287,o),
(441,276,o),
(426,276,cs)
);
},
{
closed = 1;
nodes = (
(370,301,l),
(383,323,l),
(392,323,l),
(374,294,l),
(374,277,l),
(366,277,l),
(366,294,l),
(348,323,l),
(357,323,l)
);
},
{
closed = 1;
nodes = (
(193,323,l),
(226,323,l),
(226,316,l),
(201,316,l),
(201,304,l),
(223,304,l),
(223,297,l),
(201,297,l),
(201,284,l),
(226,284,l),
(226,277,l),
(193,277,l)
);
},
{
closed = 1;
nodes = (
(132,323,l),
(139,323,l),
(164,291,l),
(164,323,l),
(172,323,l),
(172,277,l),
(165,277,l),
(140,309,l),
(140,277,l),
(132,277,l)
);
},
{
closed = 1;
nodes = (
(241,323,l),
(249,323,l),
(259,288,l),
(260,288,l),
(271,323,l),
(279,323,l),
(289,288,l),
(290,288,l),
(300,323,l),
(308,323,l),
(294,276,l),
(286,276,l),
(275,310,l),
(274,310,l),
(264,276,l),
(256,276,l)
);
},
{
closed = 1;
nodes = (
(337,490,o),
(342,499,o),
(342,511,cs),
(342,521,o),
(337,530,o),
(329,530,cs),
(321,530,o),
(315,521,o),
(315,511,cs),
(315,501,o),
(320,492,o),
(327,479,c)
);
},
{
closed = 1;
nodes = (
(322,462,l),
(313,453,o),
(307,440,o),
(307,429,cs),
(307,414,o),
(314,402,o),
(324,402,cs),
(331,402,o),
(339,413,o),
(342,423,c)
);
},
{
closed = 1;
nodes = (
(488,299,ls),
(493,299,o),
(497,303,o),
(497,308,cs),
(497,313,o),
(493,316,o),
(487,316,cs),
(476,316,l),
(476,299,l)
);
},
{
closed = 1;
nodes = (
(435,283,o),
(442,291,o),
(442,300,cs),
(442,308,o),
(435,317,o),
(426,317,cs),
(417,317,o),
(411,308,o),
(411,300,cs),
(411,291,o),
(417,283,o),
(426,283,cs)
);
},
{
closed = 1;
nodes = (
(349,438,l),
(352,447,o),
(356,459,o),
(358,468,c),
(371,465,l),
(368,451,o),
(363,438,o),
(358,426,c),
(374,396,l),
(363,388,l),
(351,412,l),
(350,412,l),
(345,400,o),
(336,388,o),
(323,388,cs),
(305,388,o),
(292,405,o),
(292,427,cs),
(292,444,o),
(300,460,o),
(315,472,c),
(307,487,o),
(301,496,o),
(301,511,cs),
(301,526,o),
(312,542,o),
(329,542,cs),
(347,542,o),
(356,526,o),
(356,511,cs),
(356,495,o),
(346,481,o),
(333,469,c)
);
}
);
width = 694;
}
);
note = apple;
unicode = 63743;
},
{
glyphname = at;
layers = (
{
layerId = m01;
shapes = (
{
closed = 1;
nodes = (
(489,196,l),
(436,131,o),
(400,102,o),
(364,102,cs),
(329,102,o),
(307,130,o),
(307,188,cs),
(307,313,o),
(379,390,o),
(454,390,cs),
(479,390,o),
(496,385,o),
(517,376,c)
);
},
{
closed = 1;
nodes = (
(497,84,o),
(542,52,o),
(604,52,cs),
(704,52,o),
(782,148,o),
(782,312,cs),
(782,503,o),
(664,625,o),
(466,625,cs),
(234,625,o),
(56,435,o),
(56,183,cs),
(56,-24,o),
(178,-140,o),
(378,-140,cs),
(468,-140,o),
(547,-120,o),
(603,-92,c),
(598,-63,l),
(539,-93,o),
(465,-111,o),
(382,-111,cs),
(209,-111,o),
(92,-15,o),
(92,184,cs),
(92,427,o),
(258,595,o),
(463,595,cs),
(637,595,o),
(748,493,o),
(748,311,cs),
(748,165,o),
(684,88,o),
(612,88,cs),
(565,88,o),
(543,117,o),
(543,156,cs),
(543,175,o),
(545,195,o),
(547,206,cs),
(579,411,l),
(543,426,o),
(502,438,o),
(459,438,cs),
(349,438,o),
(249,334,o),
(249,183,cs),
(249,97,o),
(296,52,o),
(351,52,cs),
(400,52,o),
(438,81,o),
(488,139,c)
);
}
);
width = 841;
}
);
note = at;
unicode = 64;
},
{
glyphname = ampersand;
layers = (
{
layerId = m01;
shapes = (
{
closed = 1;
nodes = (
(671,11,l),
(525,159,l),
(560,220,o),
(584,298,o),
(600,389,c),
(537,402,l),
(526,321,o),
(506,255,o),
(481,203,c),
(279,408,ls),
(227,461,o),
(205,495,o),
(205,544,cs),
(205,599,o),
(244,641,o),
(314,641,cs),
(362,641,o),
(414,622,o),
(466,589,c),
(479,658,l),
(431,685,o),
(377,701,o),
(316,701,cs),
(204,701,o),
(136,630,o),
(136,541,cs),
(136,478,o),
(161,436,o),
(208,386,c),
(113,342,o),
(44,279,o),
(44,175,cs),
(44,63,o),
(128,-11,o),
(263,-11,cs),
(355,-11,o),
(431,29,o),
(489,104,c),
(600,-6,l)
);
},
{
closed = 1;
nodes = (
(447,147,l),
(397,80,o),
(334,48,o),
(264,48,cs),
(175,48,o),
(114,105,o),
(114,181,cs),
(114,252,o),
(164,308,o),
(250,344,c)
);
}
);
width = 683;
}
);
note = ampersand;
unicode = 38;
},
{
glyphname = paragraph;
layers = (
{
layerId = m01;
shapes = (
{
closed = 1;
nodes = (
(430,0,l),
(430,676,l),
(260,676,ls),
(126,676,o),
(43,609,o),
(43,491,cs),
(43,367,o),
(127,305,o),
(258,300,c),
(288,483,l),
(288,626,l),
(370,626,l),
(370,0,l)
);
}
);
width = 527;
}
);
note = paragraph;
unicode = 182;
},
{
glyphname = section;
layers = (
{
layerId = m01;
shapes = (
{
closed = 1;
nodes = (
(496,418,o),
(450,450,o),
(364,473,cs),
(270,497,ls),
(202,516,o),
(178,532,o),
(178,566,cs),
(178,602,o),
(211,630,o),
(272,630,cs),
(324,630,o),
(374,617,o),
(419,594,c),
(429,655,l),
(379,675,o),
(335,684,o),
(275,684,cs),
(182,684,o),
(115,633,o),
(115,563,cs),
(115,493,o),
(163,466,o),
(259,442,cs),
(334,422,ls),
(410,403,o),
(435,383,o),
(435,345,cs),
(435,319,o),
(423,293,o),
(408,272,c),
(463,261,l),
(480,284,o),
(496,315,o),
(496,354,cs)
);
},
{
closed = 1;
nodes = (
(57,258,o),
(103,226,o),
(189,203,cs),
(283,179,ls),
(351,160,o),
(375,144,o),
(375,110,cs),
(375,74,o),
(342,46,o),
(281,46,cs),
(229,46,o),
(179,59,o),
(134,82,c),
(124,21,l),
(174,1,o),
(218,-8,o),
(278,-8,cs),
(371,-8,o),
(438,43,o),
(438,113,cs),
(438,183,o),
(390,210,o),
(294,234,cs),
(218,254,ls),
(143,273,o),
(118,293,o),
(118,331,cs),
(118,357,o),
(130,383,o),
(145,404,c),
(90,415,l),
(73,392,o),
(57,361,o),
(57,322,cs)
);
}
);
width = 553;
}
);
note = section;
unicode = 167;
},
{
glyphname = copyright;
layers = (
{
layerId = m01;
shapes = (
{
closed = 1;
nodes = (
(747,556,o),
(609,703,o),
(402,703,cs),
(196,703,o),
(58,555,o),
(58,345,cs),
(58,134,o),
(196,-13,o),
(403,-13,cs),
(610,-13,o),
(747,135,o),
(747,345,cs)
);
},
{
closed = 1;
nodes = (
(713,145,o),
(588,16,o),
(404,16,cs),
(220,16,o),
(93,145,o),
(93,345,cs),
(93,545,o),
(218,674,o),
(402,674,cs),
(585,674,o),
(713,545,o),
(713,345,cs)
);
},
{
closed = 1;
nodes = (
(529,238,l),
(489,208,o),
(452,193,o),
(412,193,cs),
(335,193,o),
(284,256,o),
(284,348,cs),
(284,440,o),
(334,503,o),
(412,503,cs),
(451,503,o),
(485,490,o),
(521,462,c),
(530,516,l),
(496,538,o),
(458,552,o),
(412,552,cs),
(306,552,o),
(231,468,o),
(231,348,cs),
(231,228,o),
(305,145,o),
(411,145,cs),
(458,145,o),
(502,162,o),
(537,187,c)
);
}
);
width = 806;
}
);
note = copyright;
unicode = 169;
},
{
glyphname = registered;
layers = (
{
layerId = m01;
shapes = (
{
closed = 1;
nodes = (
(510,604,o),
(418,700,o),
(283,700,cs),
(149,700,o),
(56,604,o),
(56,468,cs),
(56,331,o),
(148,235,o),
(283,235,cs),
(417,235,o),
(510,331,o),
(510,467,cs)
);
},
{
closed = 1;
nodes = (
(484,341,o),
(400,258,o),
(283,258,cs),
(167,258,o),
(83,341,o),
(83,468,cs),
(83,594,o),
(166,677,o),
(283,677,cs),
(399,677,o),
(484,594,o),
(484,467,cs)
);
},
{
closed = 1;
nodes = (
(390,353,l),
(314,459,l),
(345,468,o),
(368,492,o),
(368,530,cs),
(368,577,o),
(333,605,o),
(279,605,cs),
(209,605,l),
(209,347,l),
(246,347,l),
(246,454,l),
(274,454,l),
(351,344,l)
);
},
{
closed = 1;
nodes = (
(331,499,o),
(310,484,o),
(277,484,cs),
(245,484,l),
(245,571,l),
(278,571,ls),
(312,571,o),
(331,556,o),
(331,528,cs)
);
}
);
width = 566;
}
);
note = registered;
unicode = 174;
},
{
glyphname = trademark;
layers = (
{
layerId = m01;
shapes = (
{
closed = 1;
nodes = (
(734,345,l),
(707,690,l),
(652,690,l),
(542,407,l),
(432,690,l),
(376,690,l),
(350,345,l),
(395,345,l),
(416,610,l),
(522,344,l),
(560,344,l),
(667,610,l),
(687,345,l)
);
},
{
closed = 1;
nodes = (
(301,647,l),
(294,690,l),
(36,690,l),
(36,647,l),
(145,647,l),
(145,345,l),
(192,345,l),
(192,647,l)
);
}
);
width = 801;
}
);
note = trademark;
unicode = 8482;
},
{
glyphname = degree;
layers = (
{
layerId = m01;
shapes = (
{
closed = 1;
nodes = (
(372,614,o),
(305,681,o),
(214,681,cs),
(123,681,o),
(55,614,o),
(55,523,cs),
(55,431,o),
(123,365,o),
(214,365,cs),
(305,365,o),
(372,431,o),
(372,523,cs)
);
},
{
closed = 1;
nodes = (
(319,460,o),
(276,412,o),
(214,412,cs),
(153,412,o),
(108,460,o),
(108,523,cs),
(108,585,o),
(152,634,o),
(213,634,cs),
(275,634,o),
(319,585,o),
(319,523,cs)
);
}
);
width = 428;
}
);
note = degree;
unicode = 176;
},
{
glyphname = bar;
layers = (
{
layerId = m01;
shapes = (
{
closed = 1;
nodes = (
(163,-179,l),
(163,723,l),
(104,713,l),
(104,-189,l)
);
}
);
width = 267;
}
);
note = bar;
unicode = 124;
},
{
glyphname = brokenbar;
layers = (
{
layerId = m01;
shapes = (
{
closed = 1;
nodes = (
(25,-200,l),
(475,-200,l),
(475,800,l),
(25,800,l)
);
}
);
width = 500;
}
);
note = brokenbar;
unicode = 166;
},
{
glyphname = dagger;
layers = (
{
layerId = m01;
shapes = (
{
closed = 1;
nodes = (
(278,592,l),
(278,690,l),
(221,690,l),
(221,592,l),
(238,478,l),
(260,478,l)
);
},
{
closed = 1;
nodes = (
(447,414,l),
(447,471,l),
(402,471,l),
(286,453,l),
(286,432,l),
(402,414,l)
);
},
{
closed = 1;
nodes = (
(213,432,l),
(213,453,l),
(95,471,l),
(51,471,l),
(51,414,l),
(95,414,l)
);
},
{
closed = 1;
nodes = (
(276,-1,l),
(276,305,l),
(260,407,l),
(238,407,l),
(222,305,l),
(222,-1,l),
(240,-116,l),
(258,-116,l)
);
}
);
width = 498;
}
);
note = dagger;
unicode = 8224;
},
{
glyphname = daggerdbl;
layers = (
{
layerId = m01;
shapes = (
{
closed = 1;
nodes = (
(287,592,l),
(287,690,l),
(230,690,l),
(230,592,l),
(248,478,l),
(269,478,l)
);
},
{
closed = 1;
nodes = (
(456,414,l),
(456,471,l),
(411,471,l),
(295,453,l),
(295,432,l),
(411,414,l)
);
},
{
closed = 1;
nodes = (
(222,432,l),
(222,453,l),
(105,471,l),
(60,471,l),
(60,414,l),
(105,414,l)
);
},
{
closed = 1;
nodes = (
(285,201,l),
(285,305,l),
(269,407,l),
(248,407,l),
(231,305,l),
(231,201,l),
(248,98,l),
(269,98,l)
);
},
{
closed = 1;
nodes = (
(456,35,l),
(456,91,l),
(411,91,l),
(295,73,l),
(295,52,l),
(411,35,l)
);
},
{
closed = 1;
nodes = (
(222,52,l),
(222,73,l),
(105,91,l),
(60,91,l),
(60,35,l),
(105,35,l)
);
},
{
closed = 1;
nodes = (
(287,-185,l),
(287,-87,l),
(269,27,l),
(248,27,l),
(230,-87,l),
(230,-185,l)
);
}
);
width = 517;
}
);
note = daggerdbl;
unicode = 8225;
},
{
glyphname = cent;
layers = (
{
layerId = m01;
shapes = (
{
closed = 1;
nodes = (
(256,96,l),
(261,96,o),
(266,96,o),
(271,96,cs),
(334,96,o),
(387,114,o),
(432,147,c),
(424,203,l),
(375,165,o),
(330,150,o),
(278,150,cs),
(273,150,o),
(268,150,o),
(263,150,c),
(322,521,l),
(356,513,o),
(387,497,o),
(418,473,c),
(428,534,l),
(402,553,o),
(370,567,o),
(331,574,c),
(347,674,l),
(298,685,l),
(281,579,l),
(280,579,o),
(279,579,o),
(278,579,cs),
(152,579,o),
(56,487,o),
(56,336,cs),
(56,212,o),
(120,131,o),
(208,105,c),
(191,1,l),
(239,-10,l)
);
},
{
closed = 1;
nodes = (
(217,161,l),
(157,185,o),
(119,246,o),
(119,337,cs),
(119,453,o),
(178,523,o),
(273,525,c)
);
}
);
width = 489;
}
);
note = cent;
unicode = 162;
},
{
glyphname = currency;
layers = (
{
layerId = m01;
shapes = (
{
closed = 1;
nodes = (
(122,402,l),
(119,381,o),
(118,360,o),
(118,337,cs),
(118,320,o),
(119,304,o),
(120,289,c),
(29,289,l),
(37,236,l),
(127,236,l),
(155,83,o),
(250,-13,o),
(384,-13,cs),
(456,-13,o),
(518,12,o),
(567,47,c),
(558,108,l),
(503,68,o),
(453,45,o),
(387,45,cs),
(288,45,o),
(217,118,o),
(192,236,c),
(452,236,l),
(452,289,l),
(185,289,l),
(184,305,o),
(183,321,o),
(183,338,cs),
(183,361,o),
(184,382,o),
(186,402,c),
(187,402,o),
(456,402,o),
(456,402,c),
(447,456,l),
(197,456,l),
(224,564,o),
(292,631,o),
(389,631,cs),
(453,631,o),
(497,609,o),
(545,573,c),
(556,638,l),
(510,670,o),
(457,689,o),
(389,689,cs),
(260,689,o),
(164,598,o),
(131,456,c),
(32,456,l),
(32,402,l)
);
}
);
width = 603;
}
);
note = currency;
unicode = 164;
},
{
glyphname = dollar;
layers = (
{
layerId = m01;
shapes = (
{
closed = 1;
nodes = (
(358,743,l),
(309,755,l),
(297,679,l),
(289,680,o),
(281,680,o),
(273,680,cs),
(150,680,o),
(68,616,o),
(68,508,cs),
(68,412,o),
(127,369,o),
(243,329,c),
(201,56,l),
(150,65,o),
(104,82,o),
(63,103,c),
(54,41,l),
(93,24,o),
(139,8,o),
(191,1,c),
(173,-112,l),
(221,-123,l),
(240,-4,l),
(245,-4,o),
(251,-4,o),
(257,-4,cs),
(394,-4,o),
(476,71,o),
(476,184,cs),
(476,278,o),
(422,329,o),
(298,373,c),
(337,618,l),
(374,611,o),
(409,597,o),
(439,582,c),
(449,644,l),
(420,657,o),
(385,668,o),
(346,674,c)
);
},
{
closed = 1;
nodes = (
(289,314,l),
(390,277,o),
(415,238,o),
(415,179,cs),
(415,104,o),
(363,51,o),
(263,51,cs),
(258,51,o),
(253,51,o),
(248,51,c)
);
},
{
closed = 1;
nodes = (
(252,389,l),
(164,421,o),
(129,449,o),
(129,513,cs),
(129,578,o),
(175,626,o),
(266,626,cs),
(274,626,o),
(281,626,o),
(289,625,c)
);
}
);
width = 536;
}
);
note = dollar;
unicode = 36;
},
{
glyphname = sterling;
layers = (
{
layerId = m01;
shapes = (
{
closed = 1;
nodes = (
(159,362,l),
(61,362,l),
(61,303,l),
(141,303,l),
(61,47,l),
(61,0,l),
(494,0,l),
(485,59,l),
(130,59,l),
(206,303,l),
(417,303,l),
(408,362,l),
(224,362,l),
(266,495,ls),
(295,587,o),
(332,628,o),
(406,628,cs),
(437,628,o),
(458,625,o),
(481,619,c),
(491,679,l),
(466,685,o),
(442,689,o),
(412,689,cs),
(303,689,o),
(244,632,o),
(206,513,cs)
);
}
);
width = 544;
}
);
note = sterling;
unicode = 163;
},
{
glyphname = yen;
layers = (
{
layerId = m01;
shapes = (
{
closed = 1;
nodes = (
(337,243,l),
(508,243,l),
(499,294,l),
(347,294,l),
(574,676,l),
(502,676,l),
(308,333,l),
(108,683,l),
(44,667,l),
(266,294,l),
(107,294,l),
(107,243,l),
(276,243,l),
(276,151,l),
(103,151,l),
(113,99,l),
(276,99,l),
(276,0,l),
(337,0,l),
(337,99,l),
(504,99,l),
(504,151,l),
(337,151,l)
);
}
);
width = 614;
}
);
note = yen;
unicode = 165;
},
{
glyphname = plus;
layers = (
{
layerId = m01;
shapes = (
{
closed = 1;
nodes = (
(512,311,l),
(512,365,l),
(314,365,l),
(314,567,l),
(256,567,l),
(256,365,l),
(57,365,l),
(57,311,l),
(256,311,l),
(256,109,l),
(314,109,l),
(314,311,l)
);
}
);
width = 570;
}
);
note = plus;
unicode = 43;
},
{
glyphname = minus;
layers = (
{
layerId = m01;
shapes = (
{
closed = 1;
nodes = (
(25,-200,l),
(475,-200,l),
(475,800,l),
(25,800,l)
);
}
);
width = 500;
}
);
note = minus;
unicode = 8722;
},
{
glyphname = multiply;
layers = (
{
layerId = m01;
shapes = (
{
closed = 1;
nodes = (
(25,-200,l),
(475,-200,l),
(475,800,l),
(25,800,l)
);
}
);
width = 500;
}
);
note = multiply;
unicode = 215;
},
{
glyphname = divide;
layers = (
{
layerId = m01;
shapes = (
{
closed = 1;
nodes = (
(323,477,l),
(323,567,l),
(247,567,l),
(247,477,l)
);
},
{
closed = 1;
nodes = (
(512,311,l),
(512,365,l),
(57,365,l),
(57,311,l)
);
},
{
closed = 1;
nodes = (
(323,109,l),
(323,199,l),
(247,199,l),
(247,109,l)
);
}
);
width = 570;
}
);
note = divide;
unicode = 247;
},
{
glyphname = equal;
layers = (
{
layerId = m01;
shapes = (
{
closed = 1;
nodes = (
(527,418,l),
(527,478,l),
(77,478,l),
(77,418,l)
);
},
{
closed = 1;
nodes = (
(527,198,l),
(527,258,l),
(77,258,l),
(77,198,l)
);
}
);
width = 604;
}
);
note = equal;
unicode = 61;
},
{
glyphname = notequal;
layers = (
{
layerId = m01;
shapes = (
{
closed = 1;
nodes = (
(463,320,o),
(367,377,o),
(236,383,c),
(454,626,l),
(454,676,l),
(54,676,l),
(63,616,l),
(368,616,l),
(157,378,l),
(164,330,l),
(194,330,ls),
(322,330,o),
(395,285,o),
(395,189,cs),
(395,106,o),
(336,47,o),
(238,47,cs),
(169,47,o),
(115,66,o),
(56,106,c),
(45,40,l),
(92,9,o),
(164,-13,o),
(233,-13,cs),
(372,-13,o),
(463,73,o),
(463,189,cs)
);
}
);
width = 523;
}
);
note = notequal;
unicode = 8800;
},
{
glyphname = greater;
layers = (
{
layerId = m01;
shapes = (
{
closed = 1;
nodes = (
(512,312,l),
(512,364,l),
(74,587,l),
(74,522,l),
(444,337,l),
(74,153,l),
(74,89,l)
);
}
);
width = 570;
}
);
note = greater;
unicode = 62;
},
{
glyphname = less;
layers = (
{
layerId = m01;
shapes = (
{
closed = 1;
nodes = (
(496,89,l),
(496,154,l),
(126,339,l),
(496,523,l),
(496,587,l),
(58,364,l),
(58,312,l)
);
}
);
width = 570;
}
);
note = less;
unicode = 60;
},
{
glyphname = greaterequal;
layers = (
{
layerId = m01;
shapes = (
{
closed = 1;
nodes = (
(548,0,l),
(601,0,l),
(601,690,l),
(532,690,l),
(532,151,l),
(466,92,o),
(397,54,o),
(319,54,cs),
(212,54,o),
(156,111,o),
(156,228,cs),
(156,690,l),
(87,690,l),
(87,220,ls),
(87,62,o),
(176,-8,o),
(315,-8,cs),
(395,-8,o),
(468,28,o),
(536,82,c)
);
}
);
width = 693;
}
);
note = greaterequal;
unicode = 8805;
},
{
glyphname = lessequal;
layers = (
{
layerId = m01;
shapes = (
{
closed = 1;
nodes = (
(791,0,l),
(791,690,l),
(707,690,l),
(442,87,l),
(178,690,l),
(93,690,l),
(93,0,l),
(156,0,l),
(156,577,l),
(413,-3,l),
(467,-3,l),
(725,577,l),
(725,0,l)
);
}
);
width = 884;
}
);
note = lessequal;
unicode = 8804;
},
{
glyphname = plusminus;
layers = (
{
layerId = m01;
shapes = (
{
closed = 1;
nodes = (
(560,160,l),
(560,216,l),
(449,216,l),
(449,417,l),
(387,403,l),
(387,216,l),
(117,216,l),
(433,668,l),
(370,682,l),
(41,206,l),
(41,160,l),
(387,160,l),
(387,0,l),
(449,0,l),
(449,160,l)
);
}
);
width = 593;
}
);
note = plusminus;
unicode = 177;
},
{
glyphname = approxequal;
layers = (
{
layerId = m01;
shapes = (
{
closed = 1;
nodes = (
(760,660,o),
(739,682,o),
(713,682,cs),
(688,682,o),
(667,660,o),
(667,635,cs),
(667,610,o),
(688,588,o),
(713,588,cs),
(739,588,o),
(760,610,o),
(760,635,cs)
);
},
{
closed = 1;
nodes = (
(570,713,l),
(561,714,o),
(552,715,o),
(536,715,cs),
(454,715,o),
(402,675,o),
(402,588,cs),
(402,473,l),
(330,473,l),
(330,417,l),
(402,417,l),
(402,0,l),
(467,0,l),
(467,417,l),
(573,417,l),
(565,473,l),
(467,473,l),
(467,583,ls),
(467,635,o),
(494,655,o),
(539,655,cs),
(557,655,o),
(570,654,o),
(579,652,c)
);
},
{
closed = 1;
nodes = (
(271,713,l),
(262,714,o),
(254,715,o),
(237,715,cs),
(156,715,o),
(104,675,o),
(104,588,cs),
(104,473,l),
(32,473,l),
(32,417,l),
(104,417,l),
(104,0,l),
(169,0,l),
(169,417,l),
(275,417,l),
(266,473,l),
(169,473,l),
(169,583,ls),
(169,635,o),
(196,655,o),
(241,655,cs),
(259,655,o),
(272,654,o),
(281,652,c)
);
},
{
closed = 1;
nodes = (
(746,0,l),
(746,473,l),
(680,473,l),
(680,0,l)
);
}
);
width = 830;
}
);
note = approxequal;
unicode = 8776;
},
{
glyphname = asciitilde;
layers = (
{
layerId = m01;
shapes = (
{
closed = 1;
nodes = (
(308,338,l),
(299,300,o),
(287,285,o),
(272,285,cs),
(256,285,o),
(243,292,o),
(207,310,cs),
(176,327,o),
(159,336,o),
(132,336,cs),
(93,336,o),
(66,301,o),
(56,233,c),
(101,224,l),
(109,262,o),
(121,277,o),
(137,277,cs),
(152,277,o),
(166,270,o),
(201,251,cs),
(232,234,o),
(249,226,o),
(276,226,cs),
(315,226,o),
(342,261,o),
(352,328,c)
);
}
);
width = 408;
}
);
note = asciitilde;
unicode = 126;
},
{
glyphname = logicalnot;
layers = (
{
layerId = m01;
shapes = (
{
closed = 1;
nodes = (
(512,309,l),
(512,367,l),
(57,367,l),
(57,309,l)
);
}
);
width = 570;
}
);
note = logicalnot;
unicode = 172;
},
{
glyphname = asciicircum;
layers = (
{
layerId = m01;
shapes = (
{
closed = 1;
nodes = (
(358,555,l),
(259,695,l),
(198,695,l),
(93,550,l),
(135,550,l),
(227,632,l),
(322,547,l)
);
}
);
width = 456;
}
);
note = asciicircum;
unicode = 94;
},
{
glyphname = infinity;
layers = (
{
layerId = m01;
shapes = (
{
closed = 1;
nodes = (
(416,0,l),
(416,337,ls),
(416,434,o),
(362,483,o),
(257,483,cs),
(190,483,o),
(136,466,o),
(81,442,c),
(90,383,l),
(142,408,o),
(197,425,o),
(253,425,cs),
(313,425,o),
(351,398,o),
(351,334,cs),
(351,303,l),
(137,282,o),
(47,230,o),
(47,119,cs),
(47,35,o),
(106,-10,o),
(188,-10,cs),
(256,-10,o),
(311,22,o),
(355,63,c),
(366,0,l)
);
},
{
closed = 1;
nodes = (
(351,117,l),
(305,74,o),
(249,46,o),
(198,46,cs),
(148,46,o),
(113,72,o),
(113,123,cs),
(113,187,o),
(165,232,o),
(351,251,c)
);
}
);
width = 489;
}
);
note = infinity;
unicode = 8734;
},
{
glyphname = integral;
layers = (
{
layerId = m01;
shapes = (
{
closed = 1;
nodes = (
(452,449,l),
(399,466,o),
(346,480,o),
(279,480,cs),
(148,480,o),
(49,395,o),
(49,228,cs),
(49,73,o),
(136,-1,o),
(240,-1,cs),
(308,-1,o),
(353,35,o),
(386,71,c),
(386,4,ls),
(386,-75,o),
(348,-123,o),
(257,-123,cs),
(196,-123,o),
(140,-108,o),
(88,-81,c),
(77,-144,l),
(129,-165,o),
(188,-180,o),
(252,-180,cs),
(385,-180,o),
(452,-111,o),
(452,7,cs)
);
},
{
closed = 1;
nodes = (
(386,141,l),
(345,92,o),
(300,58,o),
(246,58,cs),
(171,58,o),
(116,119,o),
(116,231,cs),
(116,362,o),
(182,423,o),
(276,423,cs),
(325,423,o),
(356,414,o),
(386,403,c)
);
}
);
width = 529;
}
);
note = integral;
unicode = 8747;
},
{
glyphname = product;
layers = (
{
layerId = m01;
shapes = (
{
closed = 1;
nodes = (
(25,-200,l),
(475,-200,l),
(475,800,l),
(25,800,l)
);
}
);
width = 500;
}
);
note = product;
unicode = 8719;
},
{
glyphname = summation;
layers = (
{
layerId = m01;
shapes = (
{
closed = 1;
nodes = (
(975,690,l),
(903,690,l),
(692,91,l),
(472,697,l),
(402,682,l),
(473,494,l),
(326,91,l),
(108,697,l),
(40,682,l),
(293,-2,l),
(354,-2,l),
(506,407,l),
(660,-2,l),
(721,-2,l)
);
}
);
width = 1015;
}
);
note = summation;
unicode = 8721;
},
{
glyphname = radical;
layers = (
{
layerId = m01;
shapes = (
{
closed = 1;
nodes = (
(746,0,l),
(746,718,l),
(680,706,l),
(680,0,l)
);
},
{
closed = 1;
nodes = (
(570,713,l),
(561,714,o),
(552,715,o),
(536,715,cs),
(454,715,o),
(402,675,o),
(402,588,cs),
(402,473,l),
(330,473,l),
(330,417,l),
(402,417,l),
(402,0,l),
(467,0,l),
(467,417,l),
(573,417,l),
(565,473,l),
(467,473,l),
(467,583,ls),
(467,635,o),
(494,655,o),
(539,655,cs),
(557,655,o),
(570,654,o),
(579,652,c)
);
},
{
closed = 1;
nodes = (
(271,713,l),
(262,714,o),
(254,715,o),
(237,715,cs),
(156,715,o),
(104,675,o),
(104,588,cs),
(104,473,l),
(32,473,l),
(32,417,l),
(104,417,l),
(104,0,l),
(169,0,l),
(169,417,l),
(275,417,l),
(266,473,l),
(169,473,l),
(169,583,ls),
(169,635,o),
(196,655,o),
(241,655,cs),
(259,655,o),
(272,654,o),
(281,652,c)
);
}
);
width = 830;
}
);
note = radical;
unicode = 8730;
},
{
glyphname = micro;
layers = (
{
layerId = m01;
shapes = (
{
closed = 1;
nodes = (
(451,131,l),
(492,172,l),
(323,339,l),
(491,506,l),
(453,544,l),
(286,376,l),
(118,545,l),
(78,504,l),
(247,337,l),
(79,170,l),
(117,132,l),
(284,300,l)
);
}
);
width = 570;
}
);
note = mu;
unicode = 181;
},
{
glyphname = partialdiff;
layers = (
{
layerId = m01;
shapes = (
{
closed = 1;
nodes = (
(698,50,l),
(616,114,l),
(660,174,o),
(684,254,o),
(684,346,cs),
(684,557,o),
(558,703,o),
(373,703,cs),
(188,703,o),
(60,556,o),
(60,344,cs),
(60,133,o),
(186,-13,o),
(371,-13,cs),
(452,-13,o),
(525,17,o),
(578,69,c),
(684,-14,l)
);
},
{
closed = 1;
nodes = (
(613,267,o),
(596,202,o),
(564,152,c),
(432,256,l),
(351,240,l),
(529,107,l),
(489,70,o),
(435,49,o),
(373,49,cs),
(227,49,o),
(131,169,o),
(131,346,cs),
(131,523,o),
(226,641,o),
(371,641,cs),
(517,641,o),
(613,521,o),
(613,344,cs)
);
}
);
width = 749;
}
);
note = partialdiff;
unicode = 8706;
},
{
glyphname = percent;
layers = (
{
layerId = m01;
shapes = (
{
closed = 1;
nodes = (
(366,611,o),
(299,684,o),
(212,684,cs),
(124,684,o),
(57,611,o),
(57,494,cs),
(57,376,o),
(124,304,o),
(212,304,cs),
(299,304,o),
(366,376,o),
(366,494,cs)
);
},
{
closed = 1;
nodes = (
(681,670,l),
(629,683,l),
(198,6,l),
(249,-7,l)
);
},
{
closed = 1;
nodes = (
(307,414,o),
(275,352,o),
(213,352,cs),
(151,352,o),
(116,414,o),
(116,494,cs),
(116,574,o),
(149,635,o),
(211,635,cs),
(273,635,o),
(307,573,o),
(307,494,cs)
);
},
{
closed = 1;
nodes = (
(823,299,o),
(755,372,o),
(668,372,cs),
(581,372,o),
(514,299,o),
(514,182,cs),
(514,65,o),
(581,-8,o),
(668,-8,cs),
(755,-8,o),
(823,65,o),
(823,182,cs)
);
},
{
closed = 1;
nodes = (
(763,102,o),
(731,41,o),
(669,41,cs),
(607,41,o),
(573,103,o),
(573,182,cs),
(573,262,o),
(605,324,o),
(668,324,cs),
(730,324,o),
(763,262,o),
(763,182,cs)
);
}
);
width = 880;
}
);
note = percent;
unicode = 37;
},
{
glyphname = perthousand;
layers = (
{
layerId = m01;
shapes = (
{
closed = 1;
nodes = (
(747,556,o),
(609,703,o),
(402,703,cs),
(196,703,o),
(58,555,o),
(58,345,cs),
(58,134,o),
(196,-13,o),
(403,-13,cs),
(610,-13,o),
(747,135,o),
(747,345,cs)
);
},
{
closed = 1;
nodes = (
(713,145,o),
(588,16,o),
(404,16,cs),
(220,16,o),
(93,145,o),
(93,345,cs),
(93,545,o),
(218,674,o),
(402,674,cs),
(585,674,o),
(713,545,o),
(713,345,cs)
);
},
{
closed = 1;
nodes = (
(444,323,l),
(494,338,o),
(529,375,o),
(529,433,cs),
(529,504,o),
(477,548,o),
(397,548,cs),
(288,548,l),
(288,154,l),
(340,154,l),
(340,315,l),
(389,315,l),
(510,151,l),
(566,162,l)
);
},
{
closed = 1;
nodes = (
(395,500,ls),
(447,500,o),
(475,474,o),
(475,432,cs),
(475,386,o),
(443,361,o),
(391,361,cs),
(340,361,l),
(340,500,l)
);
}
);
width = 806;
}
);
note = perthousand;
unicode = 8240;
},
{
glyphname = lozenge;
layers = (
{
layerId = m01;
shapes = (
{
closed = 1;
nodes = (
(734,345,l),
(707,690,l),
(652,690,l),
(542,407,l),
(432,690,l),
(376,690,l),
(350,345,l),
(395,345,l),
(416,610,l),
(522,344,l),
(560,344,l),
(667,610,l),
(687,345,l)
);
},
{
closed = 1;
nodes = (
(228,340,o),
(277,376,o),
(277,437,cs),
(277,491,o),
(249,516,o),
(184,544,cs),
(135,565,o),
(118,579,o),
(118,609,cs),
(118,635,o),
(140,654,o),
(176,654,cs),
(204,654,o),
(229,645,o),
(253,630,c),
(261,675,l),
(239,687,o),
(211,695,o),
(178,695,cs),
(118,695,o),
(74,658,o),
(74,605,cs),
(74,553,o),
(100,532,o),
(169,502,cs),
(214,483,o),
(232,466,o),
(232,434,cs),
(232,400,o),
(203,381,o),
(167,381,cs),
(132,381,o),
(103,393,o),
(75,410,c),
(70,364,l),
(95,350,o),
(127,340,o),
(165,340,cs)
);
}
);
width = 801;
}
);
note = lozenge;
unicode = 9674;
},
{
glyphname = dieresis;
layers = (
{
layerId = m01;
shapes = (
{
closed = 1;
nodes = (
(356,557,l),
(356,645,l),
(273,645,l),
(273,557,l)
);
},
{
closed = 1;
nodes = (
(183,557,l),
(183,645,l),
(101,645,l),
(101,557,l)
);
}
);
width = 456;
}
);
note = dieresis;
unicode = 168;
},
{
glyphname = dotaccent;
layers = (
{
layerId = m01;
shapes = (
{
closed = 1;
nodes = (
(270,554,l),
(270,644,l),
(186,644,l),
(186,554,l)
);
}
);
width = 456;
}
);
note = dotaccent;
unicode = 729;
},
{
glyphname = grave;
layers = (
{
layerId = m01;
shapes = (
{
closed = 1;
nodes = (
(312,550,l),
(216,703,l),
(130,684,l),
(266,550,l)
);
}
);
width = 456;
}
);
note = grave;
unicode = 96;
},
{
glyphname = acute;
layers = (
{
layerId = m01;
shapes = (
{
closed = 1;
nodes = (
(327,684,l),
(241,703,l),
(144,550,l),
(190,550,l)
);
}
);
width = 456;
}
);
note = acute;
unicode = 180;
},
{
glyphname = hungarumlaut;
layers = (
{
layerId = m01;
shapes = (
{
closed = 1;
nodes = (
(394,687,l),
(314,706,l),
(218,554,l),
(260,554,l)
);
},
{
closed = 1;
nodes = (
(234,687,l),
(153,706,l),
(57,554,l),
(99,554,l)
);
}
);
width = 456;
}
);
note = hungarumlaut;
unicode = 733;
},
{
glyphname = circumflex;
layers = (
{
layerId = m01;
shapes = (
{
closed = 1;
nodes = (
(358,555,l),
(259,695,l),
(198,695,l),
(93,550,l),
(135,550,l),
(227,633,l),
(322,547,l)
);
}
);
width = 456;
}
);
note = circumflex;
unicode = 710;
},
{
glyphname = caron;
layers = (
{
layerId = m01;
shapes = (
{
closed = 1;
nodes = (
(363,695,l),
(321,695,l),
(229,611,l),
(134,698,l),
(98,690,l),
(197,550,l),
(259,550,l)
);
}
);
width = 456;
}
);
note = caron;
unicode = 711;
},
{
glyphname = breve;
layers = (
{
layerId = m01;
shapes = (
{
closed = 1;
nodes = (
(306,695,l),
(300,641,o),
(273,614,o),
(230,614,cs),
(181,614,o),
(157,643,o),
(151,698,c),
(103,688,l),
(109,601,o),
(157,551,o),
(228,551,cs),
(305,551,o),
(350,603,o),
(354,695,c)
);
}
);
width = 456;
}
);
note = breve;
unicode = 728;
},
{
glyphname = ring;
layers = (
{
layerId = m01;
shapes = (
{
closed = 1;
nodes = (
(326,699,o),
(284,743,o),
(228,743,cs),
(172,743,o),
(130,699,o),
(130,644,cs),
(130,588,o),
(172,548,o),
(228,548,cs),
(284,548,o),
(326,588,o),
(326,644,cs)
);
},
{
closed = 1;
nodes = (
(286,609,o),
(262,584,o),
(228,584,cs),
(195,584,o),
(169,609,o),
(169,644,cs),
(169,679,o),
(195,706,o),
(228,706,cs),
(262,706,o),
(286,679,o),
(286,644,cs)
);
}
);
width = 456;
}
);
note = ring;
unicode = 730;
},
{
glyphname = tilde;
layers = (
{
layerId = m01;
shapes = (
{
closed = 1;
nodes = (
(331,668,l),
(322,631,o),
(311,616,o),
(295,616,cs),
(279,616,o),
(266,623,o),
(232,641,cs),
(200,658,o),
(184,667,o),
(157,667,cs),
(117,667,o),
(90,631,o),
(80,563,c),
(125,554,l),
(133,592,o),
(145,607,o),
(161,607,cs),
(177,607,o),
(189,599,o),
(224,581,cs),
(256,564,o),
(272,556,o),
(299,556,cs),
(338,556,o),
(366,592,o),
(375,659,c)
);
}
);
width = 456;
}
);
note = tilde;
unicode = 732;
},
{
glyphname = macron;
layers = (
{
layerId = m01;
shapes = (
{
closed = 1;
nodes = (
(351,578,l),
(351,639,l),
(105,639,l),
(105,578,l)
);
}
);
width = 456;
}
);
note = macron;
unicode = 175;
},
{
glyphname = cedilla;
layers = (
{
layerId = m01;
shapes = (
{
closed = 1;
nodes = (
(296,-70,l),
(212,-50,l),
(128,-184,l),
(174,-184,l)
);
}
);
width = 456;
}
);
note = cedilla;
unicode = 184;
},
{
glyphname = ogonek;
layers = (
{
layerId = m01;
shapes = (
{
closed = 1;
nodes = (
(328,-184,l),
(245,-50,l),
(160,-70,l),
(283,-184,l)
);
}
);
width = 456;
}
);
note = ogonek;
unicode = 731;
},
